<svg width="65" height="22" viewBox="0 0 65 22" fill="none" xmlns="http://www.w3.org/2000/svg">
    <path d="M28.3514 14.5324C28.6139 14.5324 28.8697 14.4985 29.1185 14.4308C29.3674 14.3631 29.589 14.2587 29.7831 14.1176C29.9773 13.9765 30.1319 13.7945 30.2467 13.5716C30.3616 13.3487 30.419 13.0849 30.419 12.7801C30.419 12.402 30.3301 12.079 30.1524 11.8109C29.9746 11.5428 29.7052 11.3552 29.3442 11.248C29.6067 11.1182 29.805 10.9517 29.939 10.7485C30.073 10.5454 30.1401 10.2914 30.1401 9.98669C30.1401 9.70453 30.0949 9.46751 30.0047 9.27563C29.9144 9.08376 29.7872 8.92998 29.6231 8.81429C29.459 8.6986 29.2621 8.61536 29.0324 8.56457C28.8026 8.51378 28.5483 8.48839 28.2693 8.48839H25.5125V14.5324H28.3514ZM28.1052 10.9348H26.8006V9.52112H28.0068C28.1216 9.52112 28.2324 9.53099 28.3391 9.55075C28.4457 9.5705 28.5401 9.60577 28.6221 9.65656C28.7042 9.70735 28.7698 9.77789 28.8191 9.86818C28.8683 9.95848 28.8929 10.0742 28.8929 10.2153C28.8929 10.4692 28.8191 10.6526 28.6714 10.7655C28.5237 10.8783 28.335 10.9348 28.1052 10.9348ZM28.1791 13.4997H26.8006V11.8405H28.2037C28.4827 11.8405 28.7069 11.9068 28.8765 12.0395C29.0461 12.1721 29.1308 12.3936 29.1308 12.704C29.1308 12.862 29.1049 12.9918 29.0529 13.0934C29.0009 13.1949 28.9312 13.2754 28.8437 13.3346C28.7562 13.3939 28.655 13.4362 28.5401 13.4616C28.4252 13.487 28.3049 13.4997 28.1791 13.4997ZM31.9698 14.5324L32.4292 13.1865H34.62L35.063 14.5324H36.4005L34.2097 8.48839H32.8887L30.6734 14.5324H31.9698ZM34.2836 12.1961H32.7656L33.5287 9.97823H33.5451L34.2836 12.1961ZM41.0527 14.5324V13.415H38.1973V8.48839H36.9092V14.5324H41.0527ZM42.4557 14.5324L42.9152 13.1865H45.1059L45.549 14.5324H46.8864L44.6957 8.48839H43.3747L41.1593 14.5324H42.4557ZM44.7695 12.1961H43.2516L44.0147 9.97823H44.0311L44.7695 12.1961ZM48.6013 14.5324V10.4861H48.6177L51.0545 14.5324H52.3427V8.48839H51.1366V12.5431H51.1202L48.6751 8.48839H47.3951V14.5324H48.6013ZM56.1006 14.6678C56.4616 14.6678 56.7925 14.6114 57.0934 14.4985C57.3942 14.3857 57.6568 14.222 57.8811 14.0076C58.1053 13.7931 58.2859 13.5335 58.4226 13.2288C58.5594 12.9241 58.6441 12.5826 58.677 12.2045H57.4298C57.3806 12.6108 57.2452 12.9382 57.0237 13.1865C56.8021 13.4348 56.4944 13.5589 56.1006 13.5589C55.8107 13.5589 55.5645 13.5011 55.3621 13.3854C55.1598 13.2697 54.9957 13.1159 54.8699 12.9241C54.744 12.7322 54.6524 12.5163 54.595 12.2765C54.5375 12.0366 54.5088 11.7897 54.5088 11.5358C54.5088 11.2706 54.5375 11.0138 54.595 10.7655C54.6524 10.5172 54.744 10.2957 54.8699 10.101C54.9957 9.90628 55.1598 9.75109 55.3621 9.6354C55.5645 9.51971 55.8107 9.46186 56.1006 9.46186C56.2592 9.46186 56.411 9.48867 56.556 9.54228C56.7009 9.59589 56.8308 9.67067 56.9457 9.76661C57.0606 9.86254 57.1563 9.974 57.2329 10.101C57.3095 10.2279 57.3587 10.3676 57.3806 10.52H58.6277C58.5894 10.1701 58.4964 9.85972 58.3488 9.58884C58.2011 9.31796 58.0137 9.09081 57.7867 8.90741C57.5597 8.724 57.3026 8.58433 57.0155 8.48839C56.7283 8.39245 56.4233 8.34448 56.1006 8.34448C55.6521 8.34448 55.2486 8.42631 54.8904 8.58997C54.5321 8.75362 54.2299 8.97936 53.9837 9.26717C53.7376 9.55498 53.5488 9.89217 53.4176 10.2787C53.2863 10.6653 53.2206 11.0843 53.2206 11.5358C53.2206 11.976 53.2863 12.3865 53.4176 12.7675C53.5488 13.1484 53.7376 13.4799 53.9837 13.7621C54.2299 14.0443 54.5321 14.2658 54.8904 14.4266C55.2486 14.5874 55.6521 14.6678 56.1006 14.6678ZM64.002 14.5324V13.415H60.8431V11.9336H63.682V10.9009H60.8431V9.60577H63.9363V8.48839H59.5549V14.5324H64.002Z" fill="white"/>
    <path d="M15.864 0.844482L12.8377 6.92931H10.1357L7.10934 0.844482L0.498291 18.9129L4.71351 16.8993L7.10934 17.5134L9.18093 20.0852L11.4957 21.2017L13.7924 20.0852L15.864 17.5132L18.2599 16.8991L22.4751 18.9129L15.864 0.844482ZM15.3202 16.6172L13.1829 19.2711L11.4867 18.0346L9.78961 19.2698L7.65318 16.6172L4.6157 15.839L2.24923 16.9693L4.07709 11.974L7.24499 3.316L9.5412 7.93415H13.4322L15.7289 3.316L18.8963 11.974L20.724 16.9693L18.3577 15.839L15.3202 16.6172Z" fill="white"/>
    <path d="M13.1411 19.2777L11.4652 20.1045L9.77368 19.2764L11.4578 18.0322L13.1411 19.2777Z" fill="white"/>
    <path d="M7.46948 11.9983H8.66893L9.83258 13.3706V14.3753L8.04235 13.033L7.46948 11.9983Z" fill="white"/>
    <path d="M14.3048 11.9983L13.1411 13.3706V14.3753L14.9313 13.033L15.5042 11.9983H14.3048Z" fill="white"/>
</svg>
