<svg xmlns="http://www.w3.org/2000/svg" width="59" height="14" viewBox="0 0 59 14" fill="none">
    <path d="M6.38916 4.72437L6.04443 6.12153C6.4293 6.20984 7.64793 6.61939 7.84835 5.83249C8.04878 5.0455 6.78202 4.82068 6.38916 4.72437Z" fill="white"/>
    <path d="M5.86802 6.7959L5.48315 8.40179C5.9562 8.5222 7.41539 8.98796 7.63189 8.12076C7.8484 7.25365 6.34107 6.94051 5.86802 6.7959Z" fill="white"/>
    <path d="M6.42911 0.37232C2.91335 0.367842 0.0596518 3.21867 0.055181 6.73968C0.0507102 10.2607 2.89727 13.1188 6.41313 13.1231C9.92889 13.1276 12.7827 10.2768 12.7871 6.75568C12.7915 3.23467 9.94496 0.376702 6.42911 0.37232ZM9.23525 5.84037C9.20547 6.34538 8.8402 6.76712 8.34527 6.86819C8.97699 7.12541 9.28081 7.84676 9.02398 8.47942C9.01256 8.50752 9.0001 8.53524 8.98669 8.5624C8.60991 9.63832 7.71194 9.73473 6.53336 9.50181L6.24476 10.666L5.53923 10.4894L5.81185 9.34919L5.25862 9.20468L4.97001 10.3529L4.28046 10.1763L4.56907 9.01205L4.06396 8.89163L3.14193 8.66681L3.48666 7.86381L4.00784 7.98423C4.13778 8.01614 4.27038 7.94279 4.31252 7.81561L4.76949 5.99289H4.86566H4.76949L5.11422 4.67604C5.13743 4.47341 4.99218 4.29021 4.78985 4.26697C4.78842 4.26678 4.78699 4.26668 4.78547 4.26649L4.28037 4.13798L4.46481 3.39119L5.42689 3.63212L5.87587 3.75253L6.15649 2.6043L6.86201 2.78092L6.5814 3.89705L7.14263 4.02557L7.42324 2.90943L8.12078 3.08606L7.83218 4.23429C8.70608 4.53943 9.35548 4.98108 9.22726 5.84018H9.23525V5.84037Z" fill="white"/>
    <path d="M18.1268 4.91701C18.5588 4.91282 18.9863 5.00618 19.3776 5.19004C19.7239 5.35485 20.0283 5.59654 20.2675 5.89662C20.506 6.20709 20.6804 6.56186 20.7806 6.94045C20.8955 7.35886 20.9522 7.79117 20.949 8.2252C20.9669 9.58883 20.4316 10.9013 19.4657 11.8626C19.0088 12.3314 18.4638 12.7053 17.8623 12.9627C17.2358 13.2381 16.5581 13.3776 15.8739 13.3722H15.457C15.1887 13.3659 14.921 13.3445 14.6552 13.308C14.3418 13.2577 14.0314 13.1907 13.7251 13.1073C13.3976 13.0252 13.0803 12.9066 12.7791 12.7539L15.4248 1.62501L17.8301 1.26367L16.8519 5.19014C17.0509 5.09954 17.2575 5.02704 17.4693 4.97331C17.6844 4.91968 17.9052 4.89272 18.1267 4.893V4.91701H18.1268ZM16.0904 11.4692C16.474 11.4851 16.8544 11.3933 17.1888 11.2043C17.4997 11.0305 17.7724 10.7956 17.9906 10.5137C18.2105 10.2136 18.3811 9.88015 18.4957 9.52605C18.6367 9.16738 18.7154 8.78717 18.7282 8.40192C18.7402 8.02952 18.6603 7.65999 18.4957 7.32599C18.2963 7.03143 17.9511 6.87091 17.5977 6.90844C17.4084 6.91606 17.2204 6.94302 17.0365 6.98875C16.8068 7.04153 16.5944 7.15213 16.4191 7.30989L15.3769 11.413H16.0904V11.4772V11.4692Z" fill="white"/>
    <path d="M23.4185 13.0993H21.1575L23.0656 5.06973H25.3346L23.4185 13.0993ZM24.5168 4.07401C24.2068 4.07525 23.9052 3.9736 23.6589 3.78498C23.4069 3.5711 23.2751 3.2472 23.3061 2.91777C23.3047 2.71009 23.3484 2.50461 23.4344 2.3156C23.5266 2.14517 23.6488 1.99284 23.7952 1.86594C23.939 1.72609 24.1075 1.61444 24.2924 1.53671C24.4825 1.45592 24.6871 1.41496 24.8936 1.41629C25.189 1.42144 25.4751 1.51975 25.7114 1.69733C25.9755 1.90443 26.1197 2.22938 26.0963 2.56453C26.0972 2.78421 26.0479 3.00122 25.952 3.1989C25.8703 3.37886 25.7561 3.54224 25.6152 3.68066C25.47 3.8186 25.3017 3.92997 25.1181 4.0099C24.928 4.09068 24.7234 4.13165 24.5168 4.13031V4.07401Z" fill="white"/>
    <path d="M27.3149 3.08644L29.7202 2.7251L29.1349 5.13398H31.6684L31.1874 6.9647H28.6619L27.9884 9.79914C27.9283 10.0142 27.8906 10.2348 27.8761 10.4575C27.863 10.6379 27.8904 10.819 27.9563 10.9875C28.0206 11.1367 28.1376 11.2568 28.2851 11.3247C28.5 11.4169 28.7332 11.4582 28.9665 11.4451C29.2194 11.451 29.472 11.4295 29.7202 11.3809C29.9496 11.3252 30.1748 11.2527 30.3937 11.1641L30.522 12.9145C30.1995 13.031 29.8701 13.1275 29.5358 13.2035C29.122 13.2898 28.6998 13.3302 28.2771 13.324C27.7247 13.3463 27.1749 13.2362 26.6736 13.0028C26.3181 12.814 26.036 12.5115 25.8718 12.1436C25.7026 11.7517 25.6284 11.3252 25.6553 10.8991C25.6814 10.3983 25.7538 9.90098 25.8718 9.4136L27.3149 3.08644Z" fill="white"/>
    <path d="M31.5482 9.9194C31.5434 9.2515 31.6573 8.58807 31.885 7.96017C32.0977 7.36696 32.4246 6.82137 32.847 6.35428C33.2723 5.88691 33.7914 5.51471 34.3703 5.26225C35.0007 4.9917 35.6811 4.85766 36.3667 4.86881C36.7792 4.86357 37.1908 4.90672 37.5934 4.99732C37.9331 5.07458 38.2636 5.18766 38.5796 5.33456L37.7778 7.11707C37.5705 7.0341 37.359 6.9617 37.1443 6.90025C36.8833 6.82842 36.6132 6.79593 36.3425 6.80393C35.6469 6.76621 34.9746 7.06115 34.5305 7.59883C34.064 8.1971 33.8304 8.94474 33.8731 9.70258C33.8612 10.1329 33.9754 10.5572 34.2019 10.923C34.5104 11.2806 34.9762 11.4611 35.4446 11.4048C35.7329 11.4072 36.0206 11.3775 36.3025 11.3165C36.5549 11.2615 36.8018 11.1835 37.0401 11.0836L37.2084 12.8984C36.8998 13.0177 36.5838 13.1169 36.2623 13.1955C35.8547 13.2882 35.4375 13.3312 35.0197 13.324C34.4767 13.3601 33.9319 13.2891 33.4162 13.1153C32.9994 12.9508 32.6243 12.6957 32.3178 12.3685C32.0302 12.0542 31.8189 11.6778 31.7004 11.2685C31.5681 10.8448 31.5005 10.4035 31.5 9.9596L31.5482 9.9194Z" fill="white"/>
    <path d="M41.594 13.3482C41.128 13.3524 40.6655 13.2678 40.231 13.0992C39.8535 12.9521 39.5158 12.7184 39.2448 12.4167C38.9717 12.0962 38.7694 11.7213 38.6516 11.3167C38.5143 10.8832 38.4467 10.4306 38.4511 9.97576C38.4522 9.35101 38.5523 8.73035 38.7478 8.13704C38.9409 7.53982 39.2396 6.98232 39.6297 6.49094C40.0185 6.00147 40.5009 5.59478 41.0489 5.29451C41.6386 4.97279 42.3015 4.8096 42.9731 4.82075C43.4493 4.81008 43.923 4.89191 44.3682 5.06168C44.7465 5.21115 45.0844 5.44769 45.3543 5.75226C45.627 6.07321 45.8291 6.44798 45.9476 6.85229C46.0859 7.28555 46.1537 7.73835 46.148 8.19324C46.1422 8.8098 46.0422 9.42179 45.8514 10.008C45.6638 10.6027 45.3734 11.1598 44.9934 11.6541C44.5966 12.1587 44.0963 12.5721 43.5262 12.8665C42.9226 13.1898 42.2464 13.3529 41.562 13.3403L41.594 13.3482ZM42.6924 6.75588C42.3718 6.74997 42.0585 6.85172 41.8024 7.04491C41.5457 7.24793 41.3306 7.49876 41.169 7.7836C40.9951 8.08455 40.8655 8.40911 40.7841 8.74712C40.7011 9.07531 40.658 9.41226 40.6558 9.75084C40.6321 10.1637 40.715 10.5757 40.8964 10.9473C41.0804 11.2343 41.4065 11.3976 41.7462 11.3728C42.0669 11.3794 42.3804 11.2776 42.6362 11.0838C42.9216 10.8919 43.1646 10.6432 43.3497 10.3531C43.5236 10.0522 43.6532 9.72759 43.7346 9.38959C43.8057 9.0654 43.8381 8.73378 43.8307 8.40197C43.8544 7.98909 43.7716 7.57707 43.5902 7.20553C43.3993 6.90487 43.0538 6.73968 42.7002 6.77998L42.6924 6.75588Z" fill="white"/>
    <path d="M48.5856 13.0991H46.3167L48.2248 5.0696H50.4938L48.5856 13.0991ZM49.684 4.07388C49.3739 4.07569 49.0721 3.97395 48.8261 3.78485C48.562 3.57774 48.4178 3.25279 48.4412 2.91765C48.4398 2.70997 48.4836 2.50448 48.5696 2.31547C48.6495 2.1298 48.7638 1.96089 48.9063 1.81761C49.05 1.67776 49.2186 1.56611 49.4034 1.48838C49.5935 1.4074 49.7982 1.36644 50.0047 1.36796C50.3147 1.36672 50.6163 1.46837 50.8626 1.657C51.1267 1.8641 51.2709 2.18905 51.2475 2.5242C51.2481 2.73178 51.2044 2.93717 51.1191 3.12637C51.0374 3.30633 50.9233 3.46971 50.7824 3.60813C50.6371 3.74598 50.4689 3.85734 50.2853 3.93737C50.0951 4.01815 49.8905 4.05912 49.684 4.05778V4.07388Z" fill="white"/>
    <path d="M52.1694 5.39889L52.7066 5.19016C52.9372 5.11433 53.173 5.05536 53.4121 5.01354C53.6979 4.95009 53.987 4.90179 54.278 4.86902C54.6436 4.84368 55.0103 4.83835 55.3764 4.85292C56.3251 4.74518 57.2611 5.14091 57.8458 5.89675C58.3217 6.771 58.409 7.80539 58.0864 8.74728L57.0441 13.1475H54.7671L55.7773 8.8918C55.8405 8.62706 55.8887 8.35898 55.9216 8.08881C55.9602 7.87103 55.9602 7.6482 55.9216 7.43043C55.8765 7.23847 55.7623 7.06975 55.601 6.95667C55.3974 6.83016 55.1581 6.77376 54.9195 6.79605C54.618 6.79567 54.3172 6.82521 54.0216 6.88437L52.5624 13.0832H50.2854L52.1694 5.39889Z" fill="white"/>
</svg>
