<svg width="294" height="52" viewBox="0 0 294 52" fill="none" xmlns="http://www.w3.org/2000/svg">
    <path d="M24.9214 37.2986V42.0315L20.8012 39.6515V39.6481L16.7321 37.2918L14.6976 36.1121L12.5847 34.8915L11.3735 34.1877V17.3849L14.7112 15.4537L24.9112 9.54785V14.3215L18.8517 17.8472L15.4801 19.8091V31.8315L16.7321 32.559L24.9214 37.2986Z" fill="white"/>
    <path d="M46.6857 13.8386L46.6721 37.7576L26.1803 49.5794L25.9421 49.7154L20.8047 46.754L20.8013 42.0076L25.8536 44.9214L25.9489 44.9758L27.9835 43.7994L28.2965 43.6192L42.5758 35.3742L42.586 16.2186L38.4931 13.8556L33.1277 10.7582L33.1209 6.34495V6.01855L40.4051 10.2176L46.6857 13.8386Z" fill="white"/>
    <path d="M31.0897 4.83589V9.5857L29.2422 8.52149L25.942 6.62089L9.33215 16.2327L9.32875 35.3747L12.5847 37.2617L16.7287 39.6621L18.77 40.8419L18.7768 45.6121L12.5813 42.0285L5.17798 37.7513L5.19499 13.8425L25.9386 1.87109L31.0897 4.83589Z" fill="#6080FF"/>
    <path d="M31.0896 16.7257V23.7399L40.5173 23.7603V34.2119L26.9661 42.0285L26.9763 37.2821L36.4142 31.8285L36.3972 27.8471L26.9661 27.8539V9.53809L40.5173 17.4023V22.1895L31.0896 16.7257Z" fill="#6080FF"/>
    <path d="M73.5176 17.75C72.4746 17.75 71.5488 17.9551 70.7402 18.3652C69.9434 18.7637 69.2695 19.3438 68.7188 20.1055C68.1797 20.8672 67.7695 21.7871 67.4883 22.8652C67.207 23.9434 67.0664 25.1562 67.0664 26.5039C67.0664 28.3203 67.2891 29.873 67.7344 31.1621C68.1914 32.4395 68.8945 33.418 69.8438 34.0977C70.793 34.7656 72.0176 35.0996 73.5176 35.0996C74.5605 35.0996 75.6035 34.9824 76.6465 34.748C77.7012 34.5137 78.8438 34.1797 80.0742 33.7461V38.3164C78.9375 38.7852 77.8184 39.1191 76.7168 39.3184C75.6152 39.5293 74.3789 39.6348 73.0078 39.6348C70.3594 39.6348 68.1797 39.0898 66.4688 38C64.7695 36.8984 63.5098 35.3633 62.6895 33.3945C61.8691 31.4141 61.459 29.1055 61.459 26.4688C61.459 24.5234 61.7227 22.7422 62.25 21.125C62.7773 19.5078 63.5508 18.1074 64.5703 16.9238C65.5898 15.7402 66.8496 14.8262 68.3496 14.1816C69.8496 13.5371 71.5723 13.2148 73.5176 13.2148C74.7949 13.2148 76.0723 13.3789 77.3496 13.707C78.6387 14.0234 79.8691 14.4629 81.041 15.0254L79.2832 19.4551C78.3223 18.998 77.3555 18.5996 76.3828 18.2598C75.4102 17.9199 74.4551 17.75 73.5176 17.75ZM93.5566 24.166L98.918 13.584H104.789L96.2637 29.2812V39.2832H90.8496V29.457L82.3242 13.584H88.2305L93.5566 24.166ZM108.023 13.584H116.021C119.443 13.584 122.033 14.0645 123.791 15.0254C125.549 15.9863 126.428 17.6738 126.428 20.0879C126.428 21.0605 126.27 21.9395 125.953 22.7246C125.648 23.5098 125.203 24.1543 124.617 24.6582C124.031 25.1621 123.316 25.4902 122.473 25.6426V25.8184C123.328 25.9941 124.102 26.2988 124.793 26.7324C125.484 27.1543 126.035 27.7754 126.445 28.5957C126.867 29.4043 127.078 30.4824 127.078 31.8301C127.078 33.3887 126.697 34.7246 125.936 35.8379C125.174 36.9512 124.084 37.8066 122.666 38.4043C121.26 38.9902 119.584 39.2832 117.639 39.2832H108.023V13.584ZM113.473 23.7617H116.637C118.219 23.7617 119.314 23.5156 119.924 23.0234C120.533 22.5195 120.838 21.7812 120.838 20.8086C120.838 19.8242 120.475 19.1211 119.748 18.6992C119.033 18.2656 117.896 18.0488 116.338 18.0488H113.473V23.7617ZM113.473 28.0859V34.7832H117.023C118.664 34.7832 119.807 34.4668 120.451 33.834C121.096 33.2012 121.418 32.3516 121.418 31.2852C121.418 30.6523 121.277 30.0957 120.996 29.6152C120.715 29.1348 120.24 28.7598 119.572 28.4902C118.916 28.2207 118.008 28.0859 116.848 28.0859H113.473ZM147.012 39.2832H132.211V13.584H147.012V18.0488H137.66V23.6914H146.361V28.1562H137.66V34.7832H147.012V39.2832ZM159.879 13.584C162.211 13.584 164.133 13.8652 165.645 14.4277C167.168 14.9902 168.299 15.8398 169.037 16.9766C169.775 18.1133 170.145 19.5488 170.145 21.2832C170.145 22.4551 169.922 23.4805 169.477 24.3594C169.031 25.2383 168.445 25.9824 167.719 26.5918C166.992 27.2012 166.207 27.6992 165.363 28.0859L172.922 39.2832H166.875L160.74 29.4219H157.84V39.2832H152.391V13.584H159.879ZM159.492 18.0488H157.84V24.9922H159.598C161.402 24.9922 162.691 24.6934 163.465 24.0957C164.25 23.4863 164.643 22.5957 164.643 21.4238C164.643 20.2051 164.221 19.3379 163.377 18.8223C162.545 18.3066 161.25 18.0488 159.492 18.0488ZM191.326 32.1465C191.326 33.6699 190.957 34.9941 190.219 36.1191C189.48 37.2441 188.402 38.1113 186.984 38.7207C185.578 39.3301 183.867 39.6348 181.852 39.6348C180.961 39.6348 180.088 39.5762 179.232 39.459C178.389 39.3418 177.574 39.1719 176.789 38.9492C176.016 38.7148 175.277 38.4277 174.574 38.0879V33.0254C175.793 33.5645 177.059 34.0508 178.371 34.4844C179.684 34.918 180.984 35.1348 182.273 35.1348C183.164 35.1348 183.879 35.0176 184.418 34.7832C184.969 34.5488 185.367 34.2266 185.613 33.8164C185.859 33.4062 185.982 32.9375 185.982 32.4102C185.982 31.7656 185.766 31.2148 185.332 30.7578C184.898 30.3008 184.301 29.873 183.539 29.4746C182.789 29.0762 181.939 28.6484 180.99 28.1914C180.393 27.9102 179.742 27.5703 179.039 27.1719C178.336 26.7617 177.668 26.2637 177.035 25.6777C176.402 25.0918 175.881 24.3828 175.471 23.5508C175.072 22.707 174.873 21.6992 174.873 20.5273C174.873 18.9922 175.225 17.6797 175.928 16.5898C176.631 15.5 177.633 14.668 178.934 14.0938C180.246 13.5078 181.793 13.2148 183.574 13.2148C184.91 13.2148 186.182 13.373 187.389 13.6895C188.607 13.9941 189.879 14.4395 191.203 15.0254L189.445 19.2617C188.262 18.7812 187.201 18.4121 186.264 18.1543C185.326 17.8848 184.371 17.75 183.398 17.75C182.719 17.75 182.139 17.8613 181.658 18.084C181.178 18.2949 180.814 18.5996 180.568 18.998C180.322 19.3848 180.199 19.8359 180.199 20.3516C180.199 20.9609 180.375 21.4766 180.727 21.8984C181.09 22.3086 181.629 22.707 182.344 23.0938C183.07 23.4805 183.973 23.9316 185.051 24.4473C186.363 25.0684 187.482 25.7188 188.408 26.3984C189.346 27.0664 190.066 27.8574 190.57 28.7715C191.074 29.6738 191.326 30.7988 191.326 32.1465ZM217.043 39.2832H211.611V28.1914H201.434V39.2832H195.984V13.584H201.434V23.6562H211.611V13.584H217.043V39.2832ZM246.873 26.3984C246.873 28.3789 246.627 30.1836 246.135 31.8125C245.643 33.4297 244.893 34.8242 243.885 35.9961C242.889 37.168 241.623 38.0703 240.088 38.7031C238.553 39.3242 236.736 39.6348 234.639 39.6348C232.541 39.6348 230.725 39.3242 229.189 38.7031C227.654 38.0703 226.383 37.168 225.375 35.9961C224.379 34.8242 223.635 33.4238 223.143 31.7949C222.65 30.166 222.404 28.3555 222.404 26.3633C222.404 23.7031 222.838 21.3887 223.705 19.4199C224.584 17.4395 225.932 15.9043 227.748 14.8145C229.564 13.7246 231.873 13.1797 234.674 13.1797C237.463 13.1797 239.754 13.7246 241.547 14.8145C243.352 15.9043 244.688 17.4395 245.555 19.4199C246.434 21.4004 246.873 23.7266 246.873 26.3984ZM228.117 26.3984C228.117 28.1914 228.34 29.7383 228.785 31.0391C229.242 32.3281 229.951 33.3242 230.912 34.0273C231.873 34.7188 233.115 35.0645 234.639 35.0645C236.186 35.0645 237.439 34.7188 238.4 34.0273C239.361 33.3242 240.059 32.3281 240.492 31.0391C240.938 29.7383 241.16 28.1914 241.16 26.3984C241.16 23.7031 240.656 21.582 239.648 20.0352C238.641 18.4883 236.982 17.7148 234.674 17.7148C233.139 17.7148 231.885 18.0664 230.912 18.7695C229.951 19.4609 229.242 20.457 228.785 21.7578C228.34 23.0469 228.117 24.5938 228.117 26.3984ZM272.871 39.2832H266.684L259.951 28.4551L257.648 30.1074V39.2832H252.199V13.584H257.648V25.3438C258.012 24.8398 258.369 24.3359 258.721 23.832C259.072 23.3281 259.43 22.8242 259.793 22.3203L266.754 13.584H272.801L263.836 24.957L272.871 39.2832ZM290.906 39.2832H276.105V13.584H290.906V18.0488H281.555V23.6914H290.256V28.1562H281.555V34.7832H290.906V39.2832Z" fill="#6080FF"/>
</svg>
