<svg width="12" height="13" viewBox="0 0 12 13" fill="none" xmlns="http://www.w3.org/2000/svg">
    <path d="M4.12735 10.2827H0.872647C0.390697 10.2827 0 10.7301 0 11.282V11.2834C0 11.8353 0.390697 12.2827 0.872647 12.2827H4.12735C4.6093 12.2827 5 11.8353 5 11.2834V11.282C5 10.7301 4.6093 10.2827 4.12735 10.2827Z" fill="#999CA4"/>
    <path d="M8.01818 5.28271H0.981818C0.439575 5.28271 0 5.73012 0 6.28201V6.28341C0 6.83531 0.439575 7.28271 0.981818 7.28271H8.01818C8.56043 7.28271 9 6.83531 9 6.28341V6.28201C9 5.73012 8.56043 5.28271 8.01818 5.28271Z" fill="#999CA4"/>
    <path d="M11.048 0.282715H0.952C0.426225 0.282715 0 0.730116 0 1.28201V1.28341C0 1.83531 0.426225 2.28271 0.952 2.28271H11.048C11.5738 2.28271 12 1.83531 12 1.28341V1.28201C12 0.730116 11.5738 0.282715 11.048 0.282715Z" fill="#999CA4"/>
</svg>
