<svg width="40" height="40" viewBox="0 0 40 40" fill="none" xmlns="http://www.w3.org/2000/svg">
    <path fill-rule="evenodd" clip-rule="evenodd" d="M40 20C40 31.046 31.046 40 20 40C8.954 40 0 31.046 0 20C0 8.954 8.954 0 20 0C31.046 0 40 8.954 40 20ZM18.235 12.088C18.235 11.6902 18.393 11.3086 18.6743 11.0273C18.9556 10.746 19.3372 10.588 19.735 10.588H20.265C20.6628 10.588 21.0444 10.746 21.3257 11.0273C21.607 11.3086 21.765 11.6902 21.765 12.088V22.029C21.765 22.4268 21.607 22.8084 21.3257 23.0897C21.0444 23.371 20.6628 23.529 20.265 23.529H19.735C19.3372 23.529 18.9556 23.371 18.6743 23.0897C18.393 22.8084 18.235 22.4268 18.235 22.029V12.088ZM19.735 27.058C19.3372 27.058 18.9556 27.216 18.6743 27.4973C18.393 27.7786 18.235 28.1602 18.235 28.558V29.088C18.235 29.4858 18.393 29.8674 18.6743 30.1487C18.9556 30.43 19.3372 30.588 19.735 30.588H20.265C20.6628 30.588 21.0444 30.43 21.3257 30.1487C21.607 29.8674 21.765 29.4858 21.765 29.088V28.558C21.765 28.1602 21.607 27.7786 21.3257 27.4973C21.0444 27.216 20.6628 27.058 20.265 27.058H19.735Z" fill="#CBCDD2"/>
</svg>
