<?xml version="1.0" encoding="UTF-8"?>
<svg width="2059px" height="829px" viewBox="0 0 2059 829" version="1.1" xmlns="http://www.w3.org/2000/svg" xmlns:xlink="http://www.w3.org/1999/xlink">
    <!-- Generator: Sketch 64 (93537) - https://sketch.com -->
    <title>Group 2</title>
    <desc>Created with Sketch.</desc>
    <g id="Page-1" stroke="none" stroke-width="1" fill="none" fill-rule="evenodd">
        <g id="Group-2" fill="#FFFFFF" fill-rule="nonzero">
            <path d="M870.6,546.2 L870.6,506.6 L755.1,506.6 L755.1,454.1 L858.9,454.1 L858.9,417.5 L755.1,417.5 L755.1,371.6 L868.2,371.6 L868.2,332 L708,332 L708,546.2 L870.6,546.2 Z M958.2,547.7 C962.4,547.7 966.7,547.6 971.1,547.4 C975.5,547.2 979.5,546.8 983.1,546.2 L983.1,513.2 C981.1,513.6 979,513.9 976.8,514.1 C974.6,514.3 972.3,514.4 969.9,514.4 C962.7,514.4 957.9,513.2 955.5,510.8 C953.1,508.4 951.9,503.6 951.9,496.4 L951.9,419.6 L983.1,419.6 L983.1,391.1 L951.9,391.1 L951.9,344.6 L909.3,344.6 L909.3,391.1 L883.5,391.1 L883.5,419.6 L909.3,419.6 L909.3,511.1 C909.3,518.9 910.6,525.2 913.2,530 C915.8,534.8 919.35,538.5 923.85,541.1 C928.35,543.7 933.55,545.45 939.45,546.35 C945.35,547.25 951.6,547.7 958.2,547.7 Z M1046.1,546.2 L1046.1,464.9 C1046.1,449.1 1048.7,437.75 1053.9,430.85 C1059.1,423.95 1067.5,420.5 1079.1,420.5 C1089.3,420.5 1096.4,423.65 1100.4,429.95 C1104.4,436.25 1106.4,445.8 1106.4,458.6 L1106.4,546.2 L1149,546.2 L1149,450.8 C1149,441.2 1148.15,432.45 1146.45,424.55 C1144.75,416.65 1141.8,409.95 1137.6,404.45 C1133.4,398.95 1127.65,394.65 1120.35,391.55 C1113.05,388.45 1103.7,386.9 1092.3,386.9 C1084.3,386.9 1076.1,388.95 1067.7,393.05 C1059.3,397.15 1052.4,403.7 1047,412.7 L1046.1,412.7 L1046.1,332 L1003.5,332 L1003.5,546.2 L1046.1,546.2 Z M1253.1,550.1 C1270.7,550.1 1285.7,546.1 1298.1,538.1 C1310.5,530.1 1319.7,516.8 1325.7,498.2 L1288.2,498.2 C1286.8,503 1283,507.55 1276.8,511.85 C1270.6,516.15 1263.2,518.3 1254.6,518.3 C1242.6,518.3 1233.4,515.2 1227,509 C1220.6,502.8 1217.1,492.8 1216.5,479 L1328.4,479 C1329.2,467 1328.2,455.5 1325.4,444.5 C1322.6,433.5 1318.05,423.7 1311.75,415.1 C1305.45,406.5 1297.4,399.65 1287.6,394.55 C1277.8,389.45 1266.3,386.9 1253.1,386.9 C1241.3,386.9 1230.55,389 1220.85,393.2 C1211.15,397.4 1202.8,403.15 1195.8,410.45 C1188.8,417.75 1183.4,426.4 1179.6,436.4 C1175.8,446.4 1173.9,457.2 1173.9,468.8 C1173.9,480.8 1175.75,491.8 1179.45,501.8 C1183.15,511.8 1188.4,520.4 1195.2,527.6 C1202,534.8 1210.3,540.35 1220.1,544.25 C1229.9,548.15 1240.9,550.1 1253.1,550.1 Z M1285.8,452 L1216.5,452 C1216.7,449 1217.35,445.6 1218.45,441.8 C1219.55,438 1221.45,434.4 1224.15,431 C1226.85,427.6 1230.45,424.75 1234.95,422.45 C1239.45,420.15 1245.1,419 1251.9,419 C1262.3,419 1270.05,421.8 1275.15,427.4 C1280.25,433 1283.8,441.2 1285.8,452 Z M1396.2,546.2 L1396.2,476.3 C1396.2,469.3 1396.9,462.8 1398.3,456.8 C1399.7,450.8 1402.05,445.55 1405.35,441.05 C1408.65,436.55 1413,433 1418.4,430.4 C1423.8,427.8 1430.4,426.5 1438.2,426.5 C1440.8,426.5 1443.5,426.65 1446.3,426.95 C1449.1,427.25 1451.5,427.6 1453.5,428 L1453.5,388.4 C1450.1,387.4 1447,386.9 1444.2,386.9 C1438.8,386.9 1433.6,387.7 1428.6,389.3 C1423.6,390.9 1418.9,393.15 1414.5,396.05 C1410.1,398.95 1406.2,402.45 1402.8,406.55 C1399.4,410.65 1396.7,415.1 1394.7,419.9 L1394.1,419.9 L1394.1,391.1 L1353.6,391.1 L1353.6,546.2 L1396.2,546.2 Z M1542,550.1 C1559.6,550.1 1574.6,546.1 1587,538.1 C1599.4,530.1 1608.6,516.8 1614.6,498.2 L1577.1,498.2 C1575.7,503 1571.9,507.55 1565.7,511.85 C1559.5,516.15 1552.1,518.3 1543.5,518.3 C1531.5,518.3 1522.3,515.2 1515.9,509 C1509.5,502.8 1506,492.8 1505.4,479 L1617.3,479 C1618.1,467 1617.1,455.5 1614.3,444.5 C1611.5,433.5 1606.95,423.7 1600.65,415.1 C1594.35,406.5 1586.3,399.65 1576.5,394.55 C1566.7,389.45 1555.2,386.9 1542,386.9 C1530.2,386.9 1519.45,389 1509.75,393.2 C1500.05,397.4 1491.7,403.15 1484.7,410.45 C1477.7,417.75 1472.3,426.4 1468.5,436.4 C1464.7,446.4 1462.8,457.2 1462.8,468.8 C1462.8,480.8 1464.65,491.8 1468.35,501.8 C1472.05,511.8 1477.3,520.4 1484.1,527.6 C1490.9,534.8 1499.2,540.35 1509,544.25 C1518.8,548.15 1529.8,550.1 1542,550.1 Z M1574.7,452 L1505.4,452 C1505.6,449 1506.25,445.6 1507.35,441.8 C1508.45,438 1510.35,434.4 1513.05,431 C1515.75,427.6 1519.35,424.75 1523.85,422.45 C1528.35,420.15 1534,419 1540.8,419 C1551.2,419 1558.95,421.8 1564.05,427.4 C1569.15,433 1572.7,441.2 1574.7,452 Z M1699.2,550.1 C1708.2,550.1 1717,548.1 1725.6,544.1 C1734.2,540.1 1741.2,533.6 1746.6,524.6 L1747.5,524.6 L1747.5,546.2 L1788,546.2 L1788,391.1 L1745.4,391.1 L1745.4,472.4 C1745.4,488.2 1742.8,499.55 1737.6,506.45 C1732.4,513.35 1724,516.8 1712.4,516.8 C1702.2,516.8 1695.1,513.65 1691.1,507.35 C1687.1,501.05 1685.1,491.5 1685.1,478.7 L1685.1,391.1 L1642.5,391.1 L1642.5,486.5 C1642.5,496.1 1643.35,504.85 1645.05,512.75 C1646.75,520.65 1649.7,527.35 1653.9,532.85 C1658.1,538.35 1663.85,542.6 1671.15,545.6 C1678.45,548.6 1687.8,550.1 1699.2,550.1 Z M1864.2,546.2 L1864.2,456.2 C1864.2,448.6 1865.3,442.45 1867.5,437.75 C1869.7,433.05 1872.35,429.45 1875.45,426.95 C1878.55,424.45 1881.75,422.75 1885.05,421.85 C1888.35,420.95 1891,420.5 1893,420.5 C1899.8,420.5 1904.95,421.65 1908.45,423.95 C1911.95,426.25 1914.45,429.3 1915.95,433.1 C1917.45,436.9 1918.3,441.05 1918.5,445.55 C1918.7,450.05 1918.8,454.6 1918.8,459.2 L1918.8,546.2 L1961.4,546.2 L1961.4,459.8 C1961.4,455 1961.75,450.25 1962.45,445.55 C1963.15,440.85 1964.55,436.65 1966.65,432.95 C1968.75,429.25 1971.65,426.25 1975.35,423.95 C1979.05,421.65 1983.9,420.5 1989.9,420.5 C1995.9,420.5 2000.65,421.5 2004.15,423.5 C2007.65,425.5 2010.3,428.2 2012.1,431.6 C2013.9,435 2015,439 2015.4,443.6 C2015.8,448.2 2016,453.1 2016,458.3 L2016,546.2 L2058.6,546.2 L2058.6,442.4 C2058.6,432.4 2057.2,423.85 2054.4,416.75 C2051.6,409.65 2047.7,403.9 2042.7,399.5 C2037.7,395.1 2031.7,391.9 2024.7,389.9 C2017.7,387.9 2010.1,386.9 2001.9,386.9 C1991.1,386.9 1981.75,389.5 1973.85,394.7 C1965.95,399.9 1959.7,405.9 1955.1,412.7 C1950.9,403.1 1944.75,396.4 1936.65,392.6 C1928.55,388.8 1919.6,386.9 1909.8,386.9 C1899.6,386.9 1890.55,389.1 1882.65,393.5 C1874.75,397.9 1868,404.1 1862.4,412.1 L1861.8,412.1 L1861.8,391.1 L1821.6,391.1 L1821.6,546.2 L1864.2,546.2 Z" id="Ethereum"></path>
            <g id="ethereum">
                <g id="Group" opacity="0.6" transform="translate(0.000000, 306.000000)">
                    <polygon id="Path" points="255 0.4 0.6 116.1 255 266.4 509.3 116.1"></polygon>
                </g>
                <g id="Group" opacity="0.45">
                    <polygon id="Path" points="0.6 422.1 255 572.4 255 0"></polygon>
                </g>
                <g id="Group" opacity="0.8" transform="translate(255.000000, 0.000000)">
                    <polygon id="Path" points="0 0 0 572.4 254.3 422.1"></polygon>
                </g>
                <g id="Group" opacity="0.45" transform="translate(0.000000, 470.000000)">
                    <polygon id="Path" points="0.6 0.3 255 358.7 255 150.6"></polygon>
                </g>
                <g id="Group" opacity="0.8" transform="translate(255.000000, 470.000000)">
                    <polygon id="Path" points="0 150.6 0 358.7 254.5 0.3"></polygon>
                </g>
            </g>
        </g>
    </g>
</svg>