<svg width="85" height="23" viewBox="0 0 85 23" fill="none" xmlns="http://www.w3.org/2000/svg">
<path fill-rule="evenodd" clip-rule="evenodd" d="M1.44052 2.46259C2.37203 1.46454 3.65078 0.889648 5 0.889648L21 0.889648C22.3492 0.889648 23.628 1.46454 24.5595 2.46259C25.4888 3.4583 26 4.79491 26 6.17536V17.6039C26 18.9844 25.4888 20.321 24.5595 21.3167C23.628 22.3148 22.3492 22.8896 21 22.8896H5C3.65078 22.8896 2.37203 22.3148 1.44052 21.3167C0.511181 20.321 0 18.9844 0 17.6039L0 6.17536C0 4.79491 0.511181 3.4583 1.44052 2.46259ZM2 10.0325L2 17.6039C2 18.4968 2.33167 19.3403 2.90263 19.9521C3.47141 20.5615 4.22749 20.8896 5 20.8896H21C21.7725 20.8896 22.5286 20.5615 23.0974 19.9521C23.6683 19.3403 24 18.4968 24 17.6039V10.0325H2ZM24 8.03251H2V6.17536C2 5.28253 2.33167 4.43896 2.90263 3.82722C3.47141 3.21782 4.22749 2.88965 5 2.88965H21C21.7725 2.88965 22.5286 3.21782 23.0974 3.82722C23.6683 4.43896 24 5.28253 24 6.17536V8.03251ZM5.33333 16.1754C5.33333 15.6231 5.78105 15.1754 6.33333 15.1754H7.66667C8.21895 15.1754 8.66667 15.6231 8.66667 16.1754C8.66667 16.7276 8.21895 17.1754 7.66667 17.1754H6.33333C5.78105 17.1754 5.33333 16.7276 5.33333 16.1754ZM12 16.1754C12 15.6231 12.4477 15.1754 13 15.1754H14.3333C14.8856 15.1754 15.3333 15.6231 15.3333 16.1754C15.3333 16.7276 14.8856 17.1754 14.3333 17.1754H13C12.4477 17.1754 12 16.7276 12 16.1754Z" fill="white"/>
<path d="M39.2891 8.42969C38.8255 8.42969 38.4141 8.52083 38.0547 8.70312C37.7005 8.88021 37.401 9.13802 37.1562 9.47656C36.9167 9.8151 36.7344 10.224 36.6094 10.7031C36.4844 11.1823 36.4219 11.7214 36.4219 12.3203C36.4219 13.1276 36.5208 13.8177 36.7188 14.3906C36.9219 14.9583 37.2344 15.3932 37.6562 15.6953C38.0781 15.9922 38.6224 16.1406 39.2891 16.1406C39.7526 16.1406 40.2161 16.0885 40.6797 15.9844C41.1484 15.8802 41.6562 15.7318 42.2031 15.5391V17.5703C41.6979 17.7786 41.2005 17.9271 40.7109 18.0156C40.2214 18.1094 39.6719 18.1562 39.0625 18.1562C37.8854 18.1562 36.9167 17.9141 36.1562 17.4297C35.401 16.9401 34.8411 16.2578 34.4766 15.3828C34.112 14.5026 33.9297 13.4766 33.9297 12.3047C33.9297 11.4401 34.0469 10.6484 34.2812 9.92969C34.5156 9.21094 34.8594 8.58854 35.3125 8.0625C35.7656 7.53646 36.3255 7.13021 36.9922 6.84375C37.6589 6.55729 38.4245 6.41406 39.2891 6.41406C39.8568 6.41406 40.4245 6.48698 40.9922 6.63281C41.5651 6.77344 42.112 6.96875 42.6328 7.21875L41.8516 9.1875C41.4245 8.98438 40.9948 8.80729 40.5625 8.65625C40.1302 8.50521 39.7057 8.42969 39.2891 8.42969Z" fill="white"/>
<path d="M51.6328 18L50.8047 15.2812H46.6406L45.8125 18H43.2031L47.2344 6.53125H50.1953L54.2422 18H51.6328ZM50.2266 13.25L49.3984 10.5938C49.3464 10.4167 49.276 10.1901 49.1875 9.91406C49.1042 9.63281 49.0182 9.34896 48.9297 9.0625C48.8464 8.77083 48.7786 8.51823 48.7266 8.30469C48.6745 8.51823 48.6016 8.78385 48.5078 9.10156C48.4193 9.41406 48.3333 9.71094 48.25 9.99219C48.1667 10.2734 48.1068 10.474 48.0703 10.5938L47.25 13.25H50.2266Z" fill="white"/>
<path d="M59.0156 6.57812C60.0521 6.57812 60.9062 6.70312 61.5781 6.95312C62.2552 7.20312 62.7578 7.58073 63.0859 8.08594C63.4141 8.59115 63.5781 9.22917 63.5781 10C63.5781 10.5208 63.4792 10.9766 63.2812 11.3672C63.0833 11.7578 62.8229 12.0885 62.5 12.3594C62.1771 12.6302 61.8281 12.8516 61.4531 13.0234L64.8125 18H62.125L59.3984 13.6172H58.1094V18H55.6875V6.57812H59.0156ZM58.8438 8.5625H58.1094V11.6484H58.8906C59.6927 11.6484 60.2656 11.5156 60.6094 11.25C60.9583 10.9792 61.1328 10.5833 61.1328 10.0625C61.1328 9.52083 60.9453 9.13542 60.5703 8.90625C60.2005 8.67708 59.625 8.5625 58.8438 8.5625Z" fill="white"/>
<path d="M75.7266 12.1797C75.7266 13.4661 75.4792 14.5417 74.9844 15.4062C74.4948 16.2656 73.7839 16.9141 72.8516 17.3516C71.9193 17.7839 70.7969 18 69.4844 18H66.25V6.57812H69.8359C71.0339 6.57812 72.0729 6.79167 72.9531 7.21875C73.8333 7.64062 74.5156 8.26823 75 9.10156C75.4844 9.92969 75.7266 10.9557 75.7266 12.1797ZM73.2109 12.2422C73.2109 11.3984 73.0859 10.7057 72.8359 10.1641C72.5911 9.61719 72.2266 9.21354 71.7422 8.95312C71.263 8.69271 70.6693 8.5625 69.9609 8.5625H68.6719V16H69.7109C70.8932 16 71.7708 15.6849 72.3438 15.0547C72.9219 14.4245 73.2109 13.487 73.2109 12.2422Z" fill="white"/>
<path d="M84.8359 14.8281C84.8359 15.5052 84.6719 16.0938 84.3438 16.5938C84.0156 17.0938 83.5365 17.4792 82.9062 17.75C82.2812 18.0208 81.5208 18.1562 80.625 18.1562C80.2292 18.1562 79.8411 18.1302 79.4609 18.0781C79.0859 18.026 78.724 17.9505 78.375 17.8516C78.0312 17.7474 77.7031 17.6198 77.3906 17.4688V15.2188C77.9323 15.4583 78.4948 15.6745 79.0781 15.8672C79.6615 16.0599 80.2396 16.1562 80.8125 16.1562C81.2083 16.1562 81.526 16.1042 81.7656 16C82.0104 15.8958 82.1875 15.7526 82.2969 15.5703C82.4062 15.388 82.4609 15.1797 82.4609 14.9453C82.4609 14.6589 82.3646 14.4141 82.1719 14.2109C81.9792 14.0078 81.7135 13.8177 81.375 13.6406C81.0417 13.4635 80.6641 13.2734 80.2422 13.0703C79.9766 12.9453 79.6875 12.7943 79.375 12.6172C79.0625 12.4349 78.7656 12.2135 78.4844 11.9531C78.2031 11.6927 77.9714 11.3776 77.7891 11.0078C77.612 10.6328 77.5234 10.1849 77.5234 9.66406C77.5234 8.98177 77.6797 8.39844 77.9922 7.91406C78.3047 7.42969 78.75 7.0599 79.3281 6.80469C79.9115 6.54427 80.599 6.41406 81.3906 6.41406C81.9844 6.41406 82.5495 6.48438 83.0859 6.625C83.6276 6.76042 84.1927 6.95833 84.7812 7.21875L84 9.10156C83.474 8.88802 83.0026 8.72396 82.5859 8.60938C82.1693 8.48958 81.7448 8.42969 81.3125 8.42969C81.0104 8.42969 80.7526 8.47917 80.5391 8.57812C80.3255 8.67188 80.1641 8.80729 80.0547 8.98438C79.9453 9.15625 79.8906 9.35677 79.8906 9.58594C79.8906 9.85677 79.9688 10.0859 80.125 10.2734C80.2865 10.4557 80.526 10.6328 80.8438 10.8047C81.1667 10.9766 81.5677 11.1771 82.0469 11.4062C82.6302 11.6823 83.1276 11.9714 83.5391 12.2734C83.9557 12.5703 84.276 12.9219 84.5 13.3281C84.724 13.7292 84.8359 14.2292 84.8359 14.8281Z" fill="white"/>
</svg>
