<svg width="91" height="32" viewBox="0 0 91 32" fill="none" xmlns="http://www.w3.org/2000/svg">
<path d="M9.90514 15.1033V15.1011C9.81396 15.1079 9.34326 15.1375 8.29585 15.1375C7.45835 15.1375 6.87104 15.1124 6.66325 15.1011V15.1033C3.44257 14.9509 1.04031 14.3501 1.04031 13.6287C1.04031 12.9095 3.44469 12.3065 6.66325 12.154V14.5048C6.87316 14.5207 7.47743 14.5594 8.3107 14.5594C9.31146 14.5594 9.81184 14.5139 9.90514 14.5048V12.1563C13.1195 12.311 15.5154 12.9118 15.5154 13.6309C15.5154 14.3501 13.1173 14.9509 9.90514 15.1056M9.90514 11.9128V9.81H14.3895V6.60352H2.18101V9.81H6.66537V11.9128C3.02063 12.0926 0.28125 12.8663 0.28125 13.7948C0.28125 14.7233 3.02275 15.497 6.66537 15.6791V22.4198H9.90726V15.6791C13.5456 15.4993 16.2808 14.7256 16.2808 13.7971C16.2808 12.8708 13.5456 12.0948 9.90726 11.915" fill="white"/>
<path d="M30.9817 1.79067V5.19059H34.0603V7.74168H30.9605V12.9144C30.9605 14.0568 31.5478 14.6143 32.4086 14.6143C32.839 14.6143 33.3373 14.4687 33.7444 14.2502L34.514 16.7763C33.7232 17.1154 33.0659 17.261 32.2284 17.286C29.8071 17.3839 28.2232 15.9024 28.2232 12.9144V7.74168H26.1411V5.19059H28.2232V2.10699L30.9817 1.79067ZM84.0583 5.03129L84.2618 6.41493C85.1227 4.93344 86.2761 4.71497 87.4083 4.71497C88.5617 4.71497 89.6706 5.1997 90.2813 5.8551L89.0367 8.42894C88.4706 7.91918 87.9511 7.65065 87.0457 7.65065C85.5976 7.65065 84.2618 8.47673 84.2618 10.6865V17.0016H81.5012V5.02674L84.0583 5.03129ZM77.2925 9.62142C77.1123 8.0671 75.9801 7.28881 74.3962 7.28881C72.9036 7.28881 71.6802 8.0671 71.2731 9.62142H77.2925ZM71.2286 12.0746C71.4088 13.5561 72.6089 14.6257 74.5553 14.6257C75.573 14.6257 76.9087 14.2115 77.5427 13.5083L79.3068 15.379C78.13 16.6898 76.2069 17.3225 74.5086 17.3225C70.6624 17.3225 68.3747 14.7714 68.3747 10.9345C68.3747 7.29108 70.6837 4.66718 74.3051 4.66718C78.0389 4.66718 80.3711 7.14544 79.9407 12.0746H71.2286ZM59.054 0.00195313V6.65616C60.0505 5.27252 61.2718 4.85834 62.5397 4.85834C65.7074 4.85834 67.111 7.16592 67.111 10.6887V17.0039H64.3504V10.7138C64.3504 8.5268 63.286 7.60513 61.8146 7.60513C60.1841 7.60513 59.054 9.08663 59.054 10.8844V17.0061H56.2934V0.00422884L59.054 0.00195313ZM51.7221 1.65413V5.05405H54.8007V7.60513H51.7009V12.7778C51.7009 13.9203 52.2903 14.4778 53.1491 14.4778C53.5795 14.4778 54.0777 14.3322 54.4848 14.1137L55.2545 16.6397C54.4636 16.9788 53.8063 17.1245 52.9688 17.1495C50.5475 17.2474 48.9637 15.7636 48.9637 12.7778V7.60513H46.8816V5.05405H48.9637V1.97045L51.7221 1.65413ZM44.0955 9.62142C43.9153 8.0671 42.7831 7.28881 41.1992 7.28881C39.7066 7.28881 38.4832 8.0671 38.0761 9.62142H44.0955ZM38.0316 12.0746C38.2118 13.5561 39.4119 14.6257 41.3583 14.6257C42.376 14.6257 43.7118 14.2115 44.3457 13.5083L46.1098 15.379C44.933 16.6898 43.0099 17.3225 41.3116 17.3225C37.4633 17.3225 35.1777 14.7714 35.1777 10.9345C35.1777 7.29108 37.4867 4.66718 41.1059 4.66718C44.8397 4.66718 47.1699 7.14544 46.7416 12.0746H38.0316Z" fill="white"/>
<path d="M32.1626 31.5721V25.5066H34.2171V24.2015H28.6545V25.5066H30.7184V31.5721H32.1626ZM36.4906 31.5721V28.6819H37.9721C38.3945 28.6819 38.6826 28.7602 38.8363 28.9169C38.9901 29.0736 39.07 29.3869 39.0762 29.8569L39.0856 30.542C39.0887 30.7587 39.1089 30.9704 39.1461 31.177C39.1648 31.277 39.1958 31.4087 39.2393 31.5721H40.8186V31.3871C40.682 31.297 40.595 31.157 40.5577 30.967C40.5329 30.847 40.5205 30.6187 40.5205 30.282V29.7869C40.5205 29.2702 40.4545 28.886 40.3225 28.6344C40.1905 28.3827 39.9661 28.1885 39.6493 28.0518C40.0282 27.9118 40.3 27.6726 40.4646 27.3343C40.6292 26.9959 40.7115 26.6517 40.7115 26.3017C40.7115 26.0117 40.668 25.7533 40.581 25.5266C40.4941 25.2999 40.376 25.0933 40.227 24.9066C40.0468 24.6799 39.8271 24.5082 39.5677 24.3915C39.3084 24.2749 38.938 24.2115 38.4566 24.2015H35.0883V31.5721H36.4906ZM38.1165 27.4618H36.4906V25.4816H38.1585C38.4691 25.4816 38.702 25.525 38.8573 25.6116C39.1337 25.765 39.2719 26.065 39.2719 26.5117C39.2719 26.9251 39.129 27.2017 38.8433 27.3418C38.6818 27.4218 38.4395 27.4618 38.1165 27.4618ZM44.8252 31.7771C45.6234 31.7771 46.278 31.5254 46.7889 31.022C47.2998 30.5187 47.6174 29.8653 47.7416 29.0619H46.3207C46.2244 29.4419 46.1033 29.7269 45.9573 29.9169C45.6933 30.2703 45.3097 30.447 44.8066 30.447C44.3158 30.447 43.9113 30.2411 43.5929 29.8294C43.2746 29.4177 43.1154 28.7985 43.1154 27.9718C43.1154 27.1451 43.266 26.5059 43.5673 26.0542C43.8686 25.6025 44.2801 25.3766 44.8019 25.3766C45.3144 25.3766 45.701 25.5366 45.9619 25.8567C46.1079 26.0367 46.2275 26.3034 46.3207 26.6567H47.7556C47.7338 26.1967 47.5754 25.7383 47.2804 25.2816C46.7462 24.4682 45.9014 24.0615 44.746 24.0615C43.8826 24.0615 43.1713 24.3649 42.6123 24.9716C41.9694 25.6683 41.6479 26.66 41.6479 27.9468C41.6479 29.1369 41.9305 30.0736 42.4958 30.757C43.0611 31.4371 43.8375 31.7771 44.8252 31.7771ZM51.0027 29.3919V28.0418H48.3286V29.3919H51.0027ZM56.2113 31.5721V30.317H53.2623C53.3461 30.167 53.4494 30.0353 53.5721 29.9219C53.6564 29.844 53.7903 29.733 53.9737 29.5889L54.0787 29.507C54.1336 29.4645 54.1923 29.4194 54.2546 29.3719L54.7857 28.9669C55.2329 28.6269 55.5544 28.3185 55.75 28.0418C56.0482 27.6251 56.1973 27.1484 56.1973 26.6117C56.1973 25.9117 55.9861 25.3491 55.5637 24.9241C55.1413 24.4991 54.5729 24.2865 53.8586 24.2865C52.9548 24.2865 52.3258 24.6482 51.9718 25.3716C51.7854 25.7516 51.6814 26.25 51.6596 26.8667H52.9501C52.9656 26.46 53.0153 26.1633 53.0992 25.9767C53.2452 25.6533 53.52 25.4916 53.9238 25.4916C54.2189 25.4916 54.4456 25.5933 54.604 25.7966C54.7624 26 54.8416 26.255 54.8416 26.5617C54.8416 26.9384 54.7034 27.2851 54.4269 27.6018C54.2468 27.8051 53.8508 28.1418 53.239 28.6119C52.5339 29.1519 52.0867 29.6636 51.8972 30.147C51.7016 30.577 51.5975 31.052 51.5851 31.5721H56.2113ZM59.2208 31.7521C60.0812 31.7521 60.6845 31.4287 61.0308 30.782C61.3771 30.1353 61.5502 29.2136 61.5502 28.0168C61.5502 26.8201 61.3771 25.8967 61.0308 25.2466C60.6845 24.5966 60.0812 24.2715 59.2208 24.2715C58.3605 24.2715 57.7572 24.5966 57.4109 25.2466C57.0646 25.8967 56.8914 26.8201 56.8914 28.0168C56.8914 29.2136 57.0646 30.1353 57.4109 30.782C57.7572 31.4287 58.3605 31.7521 59.2208 31.7521ZM59.2208 30.592C58.8264 30.592 58.5655 30.3711 58.4382 29.9294C58.3108 29.4877 58.2472 28.8502 58.2472 28.0168C58.2472 27.1434 58.3108 26.4967 58.4382 26.0767C58.5655 25.6566 58.8264 25.4466 59.2208 25.4466C59.6153 25.4466 59.8738 25.6566 59.9965 26.0767C60.1192 26.4967 60.1805 27.1434 60.1805 28.0168C60.1805 28.8502 60.1192 29.4877 59.9965 29.9294C59.8738 30.3711 59.6153 30.592 59.2208 30.592Z" fill="white"/>
</svg>
