<svg width="71" height="32" viewBox="0 0 71 32" fill="none" xmlns="http://www.w3.org/2000/svg">
<g clip-path="url(#clip0_891_14167)">
<path d="M28.9177 30.6857C28.7856 30.2977 28.5461 30.0332 28.3726 29.6893C27.9514 29.0985 27.4558 28.587 26.9602 28.0756C26.7868 28.0138 26.7125 27.8375 26.5473 27.7669C26.4399 27.617 26.2665 27.5377 26.126 27.423C25.8452 27.1938 25.5396 26.9998 25.2258 26.8058C24.6311 26.4002 23.896 26.1444 23.1692 25.8799C22.3845 25.6771 21.5586 25.5272 20.6996 25.4037C19.8489 25.2715 18.9982 25.148 18.3539 24.7865C17.9823 24.6718 17.7097 24.4514 17.3876 24.275C17.0902 24.0634 16.7681 23.887 16.5203 23.6225C16.2147 23.4285 16.0248 23.1022 15.7853 22.8377C15.7027 22.6613 15.5623 22.5555 15.4962 22.3615C15.4136 22.3263 15.3888 22.2204 15.3392 22.1587C15.2814 22.0882 15.2814 21.9471 15.1823 21.9206C15.1328 22.2822 15.1493 22.7142 15.1823 23.0846C15.2236 23.2433 15.2401 23.4373 15.2814 23.596C15.3062 23.7371 15.4301 23.9664 15.3805 24.0722C12.8036 23.9311 10.9205 23.0581 9.2851 21.9118C8.47567 21.3386 7.78188 20.642 7.13765 19.8925C6.85683 19.478 6.55123 19.0812 6.30345 18.6227C6.0474 18.173 5.83266 17.6615 5.6014 17.1854C5.22146 16.1537 4.86631 15.0955 4.73416 13.7993C4.56071 12.5912 4.60201 11.0481 4.85805 9.92817C4.9489 9.31091 5.13887 8.79065 5.30406 8.25275C5.41143 8.00585 5.52706 7.75895 5.62617 7.50322C5.76658 7.29159 5.84092 7.0006 6.01437 6.81542C6.48515 5.8719 7.1872 5.16646 7.90577 4.48747C8.68216 3.87903 9.56592 3.38523 10.6314 3.08542C11.6555 2.83851 13.0514 2.79442 14.1582 3.05014C16.4047 3.54395 18.0979 4.61974 19.5185 5.99535C20.9557 7.3445 22.0624 9.05519 22.8223 11.1362C23.6069 13.1115 23.8795 16.1889 23.1774 18.4287C22.8884 18.2523 22.5993 18.0848 22.3102 17.9173C21.9633 17.8114 21.6247 17.688 21.22 17.6439C20.7326 17.6351 20.2536 17.6439 19.9397 17.8114C20.5757 17.7409 21.0878 17.9261 21.4843 18.0848C21.7155 18.1818 21.8477 18.2435 22.0294 18.3582C22.3845 18.5786 22.6984 18.7814 22.9627 19.0812C23.7143 19.7867 24.2512 20.7214 24.5072 21.9559C24.5072 21.9912 24.5485 21.9823 24.5402 21.9206C24.5733 21.9118 24.5898 21.8854 24.6063 21.8501C24.6476 21.7972 24.6972 21.7443 24.7385 21.6825C24.8211 21.5767 24.9037 21.4709 24.9615 21.3386C25.1349 21.1182 25.2753 20.8713 25.4075 20.6156C25.7131 20.1394 25.9443 19.5927 26.2086 19.0724C26.6629 17.9613 27.0346 16.7621 27.2658 15.4041C27.7284 12.3884 27.175 9.53136 26.2086 7.42386C25.2175 5.29873 23.8299 3.59686 22.0376 2.31825C20.2288 1.04846 18.1144 0.113756 15.2071 0.0255764C15.1906 -0.0361494 15.1658 0.0343944 15.108 0.0255764C13.5717 -0.0273314 12.3328 0.201936 11.1022 0.537019C10.5323 0.739833 9.93759 0.916193 9.43377 1.18955C8.85561 1.39236 8.39308 1.72745 7.86448 1.97435C7.67451 2.16835 7.38543 2.26534 7.1872 2.45052C6.93116 2.58279 6.7412 2.79442 6.48515 2.92669C6.07218 3.31468 5.63443 3.65858 5.22972 4.05539C4.83327 4.44339 4.48637 4.88428 4.10644 5.28991C4.04863 5.431 3.94951 5.528 3.8504 5.63381C3.78432 5.76608 3.70173 5.88072 3.59436 5.97771C3.55306 6.13644 3.42091 6.19816 3.37135 6.35689C3.26398 6.44507 3.2392 6.62143 3.11531 6.70079C3.00794 6.98296 2.81797 7.18578 2.69408 7.45032C2.54541 7.70604 2.42978 7.98821 2.28111 8.23512C2.04985 8.80829 1.80206 9.36382 1.6121 9.98108C1.41387 10.5807 1.24868 11.2156 1.13305 11.9034C1.00916 12.5471 0.893528 13.3848 0.910047 14.0638C0.827453 14.3107 0.893528 14.7692 0.910047 15.0602C0.910047 15.1131 0.87701 15.1308 0.87701 15.166C0.87701 15.4923 0.959604 15.8891 0.976123 16.0919C1.0422 16.8415 1.16609 17.5381 1.36432 18.1465C1.48821 18.8255 1.75251 19.3546 1.94247 19.963C2.23155 20.4745 2.42978 21.0829 2.77668 21.5415C3.03272 22.0793 3.39613 22.5026 3.74303 22.9435C4.1147 23.3668 4.48637 23.7989 4.93238 24.1428C5.75007 24.9011 6.70816 25.5095 7.7571 26.0298C9.71459 27.0439 12.6384 27.7052 15.2649 27.5377C15.9339 27.4407 16.6112 27.3525 17.2224 27.1938C17.784 26.9733 18.4365 26.8411 19.1138 26.7529C20.6583 26.6471 21.9963 26.797 23.1857 27.1673C24.3916 27.5112 25.4323 28.0315 26.3325 28.7105C26.8116 29.0103 27.208 29.3983 27.6127 29.7686C28.0257 30.1478 28.3561 30.6152 28.736 31.0384C28.7856 31.1971 28.8847 31.3118 28.959 31.4529C29.0581 31.5675 29.0086 31.832 29.2481 31.7968C29.3968 31.638 29.2233 31.4088 29.2151 31.2148C29.0664 31.0472 29.0334 30.8268 28.9177 30.6857Z" fill="white"/>
<path d="M22.9215 21.3036C22.8885 21.3036 22.8802 21.3301 22.8555 21.3389C22.7976 21.4711 22.8224 21.6828 22.8555 21.815C23.0289 22.1942 23.0867 22.688 23.4667 22.8467C23.6484 22.785 23.6318 22.5028 23.6236 22.2295C23.541 21.8944 23.4254 21.5946 23.2354 21.3741C23.1032 21.3212 23.0124 21.2331 22.9215 21.3036ZM20.675 22.2648C20.675 22.2471 20.6502 22.2295 20.6419 22.2648C20.3281 22.2207 20.2207 22.4058 20.0638 22.5381C19.7912 23.3053 20.229 24.0548 20.9971 24.046C21.3027 23.9666 21.4927 23.755 21.5422 23.3935C21.5009 22.7497 21.2449 22.3353 20.675 22.2648Z" fill="white"/>
<path d="M39.1927 21.0488C39.3166 21.6044 39.5809 22.0012 39.8782 22.3715C40.1756 22.7419 40.5225 23.0505 40.9437 23.2798C41.3401 23.5443 41.7696 23.7648 42.2652 23.9147C42.5047 24.0029 42.736 24.1087 43.0333 24.1439C43.2398 24.2674 43.4876 24.3291 43.5041 24.6466C43.4958 25.0257 43.2563 25.1668 42.9507 25.2374C42.6451 25.1668 42.2652 25.1756 42.0092 25.0522C41.3649 24.9728 40.8446 24.7524 40.2995 24.5496C39.2588 24.1175 38.3833 23.4914 37.6564 22.7242C37.5078 22.4597 37.3013 22.2481 37.1444 21.9924C36.9874 21.7366 36.8801 21.428 36.7149 21.1723C35.4429 20.9959 34.5757 20.3787 33.8158 19.6644C33.1138 18.8091 32.5521 17.7862 32.3209 16.4282C32.0483 15.1231 32.1309 13.4918 32.453 12.2309C33.1551 9.78827 34.6252 8.16576 37.4004 7.94531C38.1685 7.97177 38.8375 8.06876 39.4487 8.31567C40.0682 8.55375 40.6546 8.99465 41.1171 9.45319C41.1584 9.48846 41.175 9.49728 41.1997 9.54137C41.2988 9.69127 41.5384 9.9029 41.6705 10.0881C41.6953 10.1234 41.687 10.1851 41.7118 10.2292C41.7614 10.3085 41.8357 10.3438 41.8853 10.4143C41.91 10.4584 41.9018 10.5113 41.9266 10.5466C41.9596 10.5995 42.0009 10.6789 42.0504 10.7759C42.067 10.8112 42.1248 10.8376 42.133 10.8641C42.2074 11.014 42.2404 11.1991 42.3065 11.3667C42.3726 11.543 42.4634 11.693 42.5212 11.8693C42.6864 12.3896 42.7938 13.0068 42.8599 13.6417C43.0251 15.4759 42.6864 17.116 42.0504 18.3329C41.7531 18.9678 41.3401 19.488 40.8528 19.9289C40.4068 20.4316 39.7956 20.7314 39.1927 21.0488ZM37.1444 9.56782C36.7727 9.59427 36.5497 9.77945 36.2441 9.88527C36.0459 10.0793 35.7981 10.2292 35.6494 10.4761C35.4016 10.626 35.3355 10.9611 35.1373 11.1551C34.9721 11.596 34.8152 12.0898 34.7078 12.6629C34.6087 13.2273 34.5426 13.8622 34.5344 14.4883C34.5261 16.0579 34.84 17.6186 35.4264 18.5445C35.7733 18.9942 36.1945 19.3646 36.7066 19.638C37.0039 19.6644 37.2352 19.7702 37.5573 19.779C37.739 19.7085 38.0364 19.779 38.152 19.638C38.4163 19.6556 38.4741 19.4704 38.7054 19.4528C38.8293 19.3205 38.9614 19.2147 39.1349 19.1353C39.2918 18.9502 39.4405 18.765 39.6057 18.5886C39.6883 18.4563 39.7378 18.2712 39.8617 18.1742C40.6051 16.6575 40.6876 13.8798 40.2003 12.1162C40.0186 11.4725 39.7626 10.9522 39.4735 10.5202C39.1597 10.1763 38.788 9.88527 38.3667 9.656C38.0281 9.57664 37.706 9.47964 37.26 9.52373C37.2352 9.52373 37.2104 9.53255 37.2187 9.56782C37.2022 9.56782 37.1774 9.56782 37.1444 9.56782ZM46.1554 8.28921C46.8244 8.31567 47.609 8.22749 48.2037 8.3333C48.3359 8.55375 48.2863 8.81829 48.2863 9.0652C48.3359 12.4072 48.2863 15.9961 48.2863 19.4087C48.2863 19.682 48.2946 19.9642 48.2863 20.2288C48.278 20.458 48.3359 20.7049 48.2037 20.9166C47.9064 20.9959 47.4769 20.9607 47.097 20.9607C46.6922 20.9607 46.2958 21.0224 46.0315 20.8725C45.9572 16.8338 45.9572 12.4778 46.0315 8.4303C46.048 8.35976 46.0893 8.31567 46.1554 8.28921ZM51.2762 8.28921H53.2833C53.465 8.55375 53.5228 8.95056 53.5806 9.33855C54.1835 11.79 54.7782 14.2502 55.3316 16.7633C55.4637 16.7809 55.4224 16.6134 55.4637 16.534C55.5216 16.4723 55.4885 16.3224 55.5463 16.2607C55.5711 16.0579 55.6867 15.952 55.6785 15.714C55.8272 15.4053 55.8767 14.9821 56.0171 14.6646C56.1906 13.9239 56.4218 13.2361 56.6201 12.5218C56.81 11.7811 57.0661 11.111 57.2147 10.335C57.4956 9.70891 57.5616 8.85356 57.9003 8.28921H58.751C59.0566 8.90647 59.1722 9.72654 59.4365 10.3879C59.61 11.1286 59.8495 11.7988 60.0312 12.5307C60.4524 13.9504 60.8902 15.3524 61.2701 16.8162C61.4436 16.5428 61.4436 16.0843 61.5675 15.7669C61.6418 15.4053 61.7079 15.035 61.8235 14.7175C62.1539 13.2714 62.4677 11.8164 62.8477 10.432C62.9881 9.70891 63.1285 8.9682 63.3597 8.3333C63.8553 8.25394 64.6152 8.25394 65.1107 8.3333C65.152 8.8712 64.9208 9.45319 64.7721 9.92936C64.6895 10.5113 64.4913 10.9611 64.3839 11.5254C64.0783 12.5571 63.847 13.6505 63.5332 14.6734C63.2937 15.7669 62.9716 16.7721 62.7238 17.8655C62.5586 18.3682 62.4429 18.9237 62.2943 19.4616C62.1291 19.9554 62.0713 20.5638 61.8235 20.9695H60.6259C60.3203 20.3963 60.2129 19.6203 59.9403 19.0119C59.3457 17.0014 58.6849 15.0702 58.1068 13.0421C57.9085 13.2626 57.9085 13.7123 57.7681 13.9944C57.6773 14.3383 57.5864 14.6823 57.4708 14.9997C57.3056 15.6963 57.0578 16.2871 56.9174 17.0014C56.6779 17.6275 56.5044 18.3241 56.3227 19.0119C56.0749 19.6115 55.9841 20.3787 55.6785 20.9254C55.3646 21.0312 54.8691 20.943 54.4809 20.9695C54.1835 20.6079 54.1505 19.9554 53.9688 19.4616C53.8284 18.9502 53.7293 18.3858 53.5476 17.9096C53.3163 16.7986 52.9694 15.8198 52.7381 14.7175C52.4325 13.6946 52.1682 12.6277 51.8874 11.5695C51.7305 11.0669 51.6149 10.529 51.4579 10.0175C51.3836 9.47082 51.0367 8.97702 51.1606 8.37739C51.1771 8.3333 51.2267 8.30685 51.2762 8.28921ZM68.1337 8.28921C68.8027 8.31567 69.5791 8.22749 70.182 8.3333C70.3307 8.80947 70.2646 9.32092 70.2646 9.83236V19.3999C70.2646 19.9201 70.3224 20.4228 70.182 20.9077C69.7195 20.9607 69.0422 20.9871 68.4723 20.9518C68.3071 20.943 68.1089 20.9959 68.0015 20.8637C67.8529 20.3875 67.9189 19.8849 67.9189 19.3558V9.88527C67.9189 9.3121 67.8694 8.75657 68.0015 8.37739C68.0346 8.3333 68.0841 8.30685 68.1337 8.28921Z" fill="white"/>
</g>
<defs>
<clipPath id="clip0_891_14167">
<rect width="69.4452" height="31.78" fill="white" transform="translate(0.835938)"/>
</clipPath>
</defs>
</svg>
