<svg width="98" height="21" viewBox="0 0 98 21" fill="none" xmlns="http://www.w3.org/2000/svg">
<g clip-path="url(#clip0_891_14172)">
<path d="M85.501 10.9473C85.501 8.49414 83.5004 6.50977 80.6746 6.50977C77.9047 6.50977 75.9324 8.41789 75.9324 11.0398C75.9324 13.6748 77.9606 15.596 80.8706 15.596C82.717 15.596 84.2697 14.8298 85.2349 13.2723L83.2768 12.4285C82.8153 13.2073 81.8076 13.7135 80.8706 13.7135C79.6817 13.7135 78.3109 12.8829 78.2267 11.7279H85.431C85.4769 11.4699 85.5003 11.2088 85.501 10.9473ZM78.2685 10.1973C78.4369 9.02914 79.3038 8.26352 80.6887 8.26352C82.0595 8.26352 82.8989 9.01352 83.0107 10.1973H78.2685Z" fill="white"/>
<path d="M58.5345 6.50781C55.6945 6.50781 53.6804 8.40344 53.6804 11.0772C53.6804 13.7247 55.6945 15.5941 58.5628 15.5941C61.4445 15.5941 63.4586 13.7247 63.4586 11.1159C63.4586 8.42906 61.3886 6.50781 58.5345 6.50781ZM58.5628 13.6078C57.1354 13.6078 56.2543 12.6216 56.2543 11.0897C56.2543 9.53219 57.1495 8.46781 58.5628 8.46781C59.9895 8.46781 60.8847 9.51906 60.8847 11.0897C60.8847 12.6347 60.0036 13.6078 58.5628 13.6078Z" fill="white"/>
<path d="M48.714 6.31558C47.5507 6.31558 46.6743 6.68433 45.798 7.59871H45.5103C44.9216 6.77308 43.961 6.31558 42.8833 6.31558C42.3451 6.3107 41.8135 6.42448 41.332 6.64756C40.8506 6.87064 40.4331 7.19664 40.114 7.59871H39.8264L39.8123 7.58621V6.49371H37.4048V15.2087H40.0063V10.7237C40.0063 9.27558 40.6637 8.42433 41.8001 8.42433C42.8543 8.42433 43.5387 9.14871 43.5387 10.2537V15.2087H46.1536V10.7237C46.1536 9.28621 46.8111 8.42433 47.9616 8.42433C49.0017 8.42433 49.6726 9.14871 49.6726 10.2668V15.2087H52.2882V9.97433C52.2882 7.70058 50.9733 6.31558 48.714 6.31558Z" fill="white"/>
<path d="M91.2862 12.3809H91.1003C91.1003 12.2259 89.9659 9.4659 89.2223 7.7559L88.7575 6.68652H86.1365L89.8548 15.4321L88.3897 18.7646H90.9925L96.3471 6.68965H93.7247L93.297 7.60402L91.8467 10.9334C91.4378 11.8634 91.2701 12.2946 91.2862 12.3809Z" fill="white"/>
<path d="M70.6736 6.51074C69.5096 6.51074 68.51 6.98074 67.8391 7.81949H67.5649L67.538 7.80699V6.68887H65.1292V15.4039H67.7306V10.9445C67.7306 9.52199 68.4716 8.63199 69.6888 8.63199C70.8252 8.63199 71.6605 9.41949 71.6605 10.6645V15.4032H74.262V10.1445C74.262 8.01012 72.7558 6.51074 70.6736 6.51074Z" fill="white"/>
<path d="M19.4448 1.51465C13.8242 1.51465 9.30762 5.7334 9.30762 10.8896C9.30762 16.0884 13.8686 20.2646 19.4434 20.2646C25.0182 20.2646 29.5833 16.0459 29.5833 10.8896C29.5833 5.7334 25.0196 1.51465 19.4448 1.51465ZM19.4448 14.384C17.3714 14.384 15.6672 12.8071 15.6672 10.8896C15.6672 8.97215 17.3714 7.39527 19.4448 7.39527C21.5182 7.39527 23.2231 8.97215 23.2231 10.8896C23.1766 12.8071 21.5182 14.384 19.4448 14.384Z" fill="white"/>
<path d="M9.30759 4.23828V17.8745H5.7159L1.1084 4.23828H9.30759Z" fill="white"/>
</g>
<defs>
<clipPath id="clip0_891_14172">
<rect width="97" height="20" fill="white" transform="translate(0.28125 0.889648)"/>
</clipPath>
</defs>
</svg>
