<svg width="95" height="22" viewBox="0 0 95 22" fill="none" xmlns="http://www.w3.org/2000/svg">
<path d="M10.5129 7.41992L9.95605 9.67688C10.5778 9.81953 12.5463 10.4811 12.8701 9.20997C13.1938 7.93868 11.1475 7.57551 10.5129 7.41992Z" fill="white"/>
<path d="M9.67127 10.7666L9.04956 13.3607C9.81372 13.5553 12.1709 14.3076 12.5206 12.9068C12.8703 11.506 10.4354 11.0002 9.67127 10.7666Z" fill="white"/>
<path d="M10.5776 0.389657C4.8983 0.382424 0.288481 4.9876 0.281258 10.6754C0.274036 16.3632 4.87233 20.9801 10.5518 20.9871C16.2311 20.9944 20.8411 16.3892 20.8481 10.7012C20.8554 5.01345 16.2571 0.396736 10.5776 0.389657ZM15.1106 9.22266C15.0625 10.0384 14.4724 10.7197 13.6729 10.883C14.6934 11.2985 15.1842 12.4638 14.7693 13.4857C14.7509 13.5311 14.7307 13.5759 14.7091 13.6198C14.1004 15.3578 12.6499 15.5136 10.746 15.1373L10.2798 17.018L9.14011 16.7327L9.5805 14.8908L8.68681 14.6573L8.2206 16.5122L7.10671 16.2268L7.57292 14.3461L6.75698 14.1516L5.26755 13.7884L5.82442 12.4913L6.66632 12.6858C6.87622 12.7374 7.09043 12.6189 7.1585 12.4134L7.89668 9.46905H8.05203H7.89668L8.45355 7.34182C8.49104 7.01449 8.2564 6.71856 7.92957 6.68101C7.92726 6.6807 7.92496 6.68055 7.9225 6.68024L7.10656 6.47264L7.40451 5.2663L8.95863 5.65548L9.68391 5.85L10.1372 3.99516L11.2769 4.28047L10.8236 6.08345L11.7302 6.29105L12.1835 4.48807L13.3103 4.77339L12.8441 6.62822C14.2558 7.12113 15.3048 7.83458 15.0977 9.22236H15.1106V9.22266Z" fill="white"/>
<path d="M29.4739 7.73065C30.1718 7.72388 30.8623 7.87469 31.4943 8.1717C32.0538 8.43793 32.5455 8.82835 32.932 9.3131C33.3172 9.81463 33.5989 10.3877 33.7608 10.9993C33.9465 11.6752 34.038 12.3735 34.0328 13.0746C34.0617 15.2774 33.1971 17.3976 31.6368 18.9505C30.8986 19.7078 30.0183 20.3117 29.0465 20.7275C28.0345 21.1724 26.9398 21.3978 25.8346 21.389H25.1611C24.7277 21.3789 24.2953 21.3443 23.8659 21.2853C23.3597 21.2041 22.8581 21.0959 22.3635 20.9611C21.8345 20.8284 21.3218 20.637 20.8352 20.3903L25.1091 2.41281L28.9946 1.8291L27.4145 8.17185C27.7358 8.0255 28.0696 7.90839 28.4118 7.8216C28.7592 7.73496 29.1158 7.6914 29.4737 7.69187V7.73065H29.4739ZM26.1843 18.3149C26.804 18.3406 27.4185 18.1923 27.9586 17.887C28.4609 17.6063 28.9013 17.2268 29.2538 16.7714C29.6091 16.2866 29.8846 15.748 30.0698 15.176C30.2976 14.5966 30.4247 13.9824 30.4453 13.3601C30.4648 12.7586 30.3357 12.1616 30.0698 11.6221C29.7477 11.1462 29.19 10.8869 28.6192 10.9476C28.3134 10.9599 28.0096 11.0034 27.7126 11.0773C27.3415 11.1626 26.9984 11.3412 26.7153 11.5961L25.0317 18.2241H26.1843V18.3279V18.3149Z" fill="white"/>
<path d="M38.022 20.9478H34.3696L37.4521 7.97695H41.1173L38.022 20.9478ZM39.7963 6.36848C39.2955 6.37048 38.8083 6.20628 38.4104 5.90158C38.0032 5.5561 37.7904 5.03287 37.8405 4.50072C37.8382 4.16524 37.9089 3.83329 38.0478 3.52797C38.1967 3.25266 38.3942 3.00659 38.6306 2.80161C38.8628 2.5757 39.1351 2.39534 39.4337 2.26977C39.7408 2.13927 40.0714 2.07309 40.405 2.07525C40.8821 2.08356 41.3443 2.24237 41.726 2.52923C42.1525 2.86378 42.3855 3.3887 42.3477 3.93009C42.3492 4.28496 42.2695 4.63552 42.1146 4.95485C41.9826 5.24554 41.7982 5.50947 41.5706 5.73307C41.336 5.9559 41.0642 6.1358 40.7676 6.26492C40.4604 6.39541 40.1299 6.46159 39.7963 6.45943V6.36848Z" fill="white"/>
<path d="M44.3161 4.77316L48.2016 4.18945L47.2561 8.08073H51.3487L50.5716 11.038H46.4919L45.404 15.6167C45.3069 15.9641 45.246 16.3205 45.2227 16.6803C45.2015 16.9717 45.2457 17.2643 45.3522 17.5364C45.4561 17.7774 45.6451 17.9714 45.8833 18.0811C46.2304 18.2301 46.6072 18.2967 46.9841 18.2757C47.3925 18.2852 47.8007 18.2504 48.2016 18.1719C48.5722 18.0819 48.9359 17.9648 49.2895 17.8217L49.4968 20.6493C48.9759 20.8375 48.4437 20.9934 47.9038 21.1162C47.2352 21.2554 46.5532 21.3207 45.8704 21.3107C44.9781 21.3467 44.0899 21.169 43.2801 20.7919C42.7059 20.4869 42.2501 19.9983 41.9849 19.404C41.7115 18.7709 41.5917 18.0819 41.6352 17.3936C41.6773 16.5846 41.7944 15.7813 41.9849 14.994L44.3161 4.77316Z" fill="white"/>
<path d="M51.1546 15.8111C51.1467 14.7321 51.3308 13.6604 51.6985 12.6462C52.0421 11.6879 52.5702 10.8065 53.2527 10.052C53.9397 9.29703 54.7782 8.69578 55.7134 8.28797C56.7317 7.85092 57.8307 7.6344 58.9383 7.6524C59.6045 7.64394 60.2696 7.71365 60.9199 7.86C61.4686 7.98481 62.0026 8.16748 62.5129 8.40478L61.2177 11.2842C60.8828 11.1502 60.5412 11.0332 60.1944 10.934C59.7728 10.8179 59.3364 10.7655 58.8992 10.7784C57.7755 10.7174 56.6894 11.1939 55.9721 12.0624C55.2186 13.0289 54.8412 14.2366 54.9102 15.4608C54.8908 16.1559 55.0754 16.8414 55.4412 17.4323C55.9396 18.0098 56.692 18.3015 57.4487 18.2105C57.9144 18.2144 58.3792 18.1665 58.8345 18.0679C59.2423 17.9791 59.6411 17.853 60.026 17.6918L60.298 20.6232C59.7994 20.816 59.2889 20.9762 58.7697 21.1032C58.1112 21.2529 57.4373 21.3225 56.7623 21.3108C55.8852 21.3691 55.0052 21.2545 54.172 20.9736C53.4988 20.7079 52.8928 20.2959 52.3977 19.7673C51.9332 19.2596 51.5919 18.6516 51.4004 17.9903C51.1867 17.306 51.0774 16.5931 51.0767 15.876L51.1546 15.8111Z" fill="white"/>
<path d="M67.3825 21.3498C66.6297 21.3566 65.8826 21.2201 65.1807 20.9477C64.5709 20.7101 64.0253 20.3324 63.5877 19.8452C63.1463 19.3274 62.8197 18.7218 62.6293 18.0682C62.4075 17.3679 62.2983 16.6367 62.3055 15.9021C62.3072 14.8928 62.469 13.8902 62.7848 12.9318C63.0967 11.9671 63.5792 11.0665 64.2094 10.2727C64.8374 9.48206 65.6168 8.8251 66.5018 8.34004C67.4545 7.82035 68.5254 7.55673 69.6102 7.57473C70.3795 7.5575 71.1447 7.68969 71.8638 7.96393C72.4749 8.20538 73.0207 8.58749 73.4568 9.07948C73.8972 9.59794 74.2237 10.2033 74.4152 10.8565C74.6386 11.5563 74.748 12.2878 74.739 13.0226C74.7296 14.0186 74.5679 15.0072 74.2597 15.9541C73.9567 16.9148 73.4876 17.8148 72.8738 18.6131C72.2328 19.4283 71.4247 20.0962 70.5038 20.5717C69.5286 21.094 68.4363 21.3575 67.3307 21.337L67.3825 21.3498ZM69.1568 10.7007C68.6389 10.6912 68.1328 10.8555 67.7191 11.1676C67.3044 11.4956 66.957 11.9008 66.6959 12.3609C66.415 12.847 66.2056 13.3713 66.0742 13.9173C65.94 14.4475 65.8704 14.9918 65.8669 15.5387C65.8286 16.2057 65.9625 16.8713 66.2555 17.4714C66.5529 17.9351 67.0796 18.1989 67.6283 18.1589C68.1463 18.1695 68.6528 18.005 69.066 17.692C69.5271 17.382 69.9196 16.9802 70.2186 16.5116C70.4995 16.0255 70.7089 15.5012 70.8403 14.9552C70.9552 14.4315 71.0075 13.8958 70.9956 13.3598C71.0339 12.6928 70.9001 12.0273 70.607 11.4271C70.2986 10.9414 69.7405 10.6746 69.1694 10.7396L69.1568 10.7007Z" fill="white"/>
<path d="M78.6765 20.9485H75.0112L78.0937 7.97768H81.7589L78.6765 20.9485ZM80.4508 6.36922C79.9499 6.37214 79.4623 6.20779 79.065 5.90231C78.6384 5.56776 78.4054 5.04284 78.4432 4.50145C78.4409 4.16597 78.5116 3.83402 78.6505 3.52871C78.7796 3.22877 78.9643 2.95593 79.1945 2.72448C79.4267 2.49857 79.699 2.31821 79.9975 2.19263C80.3045 2.06182 80.6352 1.99565 80.9688 1.99811C81.4696 1.99611 81.9569 2.16031 82.3547 2.46502C82.7812 2.79957 83.0142 3.32449 82.9764 3.86588C82.9775 4.20121 82.9068 4.53299 82.7691 4.83862C82.6371 5.12932 82.4527 5.39324 82.2251 5.61685C81.9903 5.83953 81.7187 6.01942 81.4221 6.14869C81.1149 6.27919 80.7844 6.34536 80.4508 6.34321V6.36922Z" fill="white"/>
<path d="M84.4658 8.5088L85.3335 8.17163C85.7061 8.04914 86.0869 7.95388 86.4732 7.88632C86.9349 7.78383 87.4019 7.70581 87.872 7.65287C88.4625 7.61193 89.0548 7.60331 89.6463 7.62686C91.1787 7.45281 92.6908 8.09207 93.6353 9.31304C94.4041 10.7253 94.5451 12.3962 94.0239 13.9177L92.3403 21.0258H88.6621L90.294 14.1512C90.396 13.7235 90.4739 13.2905 90.5271 12.8541C90.5893 12.5023 90.5893 12.1423 90.5271 11.7905C90.4541 11.4804 90.2697 11.2079 90.0091 11.0252C89.6802 10.8209 89.2936 10.7298 88.9082 10.7658C88.4211 10.7651 87.9353 10.8129 87.4577 10.9084L85.1005 20.9219H81.4224L84.4658 8.5088Z" fill="white"/>
</svg>
