<svg width="101" height="29" viewBox="0 0 101 29" fill="none" xmlns="http://www.w3.org/2000/svg">
<path d="M35.1902 20.6477V18.4689H28.8619V15.5803H34.5491V13.5666H28.8619V11.0411H35.0587V8.8623H26.2812V20.6477H35.1902ZM39.9898 20.7303C40.2199 20.7303 40.4555 20.7248 40.6966 20.7138C40.9377 20.7027 41.1569 20.6807 41.3541 20.6477V18.832C41.2445 18.8541 41.1295 18.8706 41.0089 18.8816C40.8884 18.8926 40.7624 18.8981 40.6309 18.8981C40.2364 18.8981 39.9734 18.832 39.8419 18.7C39.7104 18.5679 39.6446 18.3038 39.6446 17.9077V13.6821H41.3541V12.114H39.6446V9.55557H37.3106V12.114H35.897V13.6821H37.3106V18.7165C37.3106 19.1457 37.3818 19.4923 37.5243 19.7564C37.6667 20.0205 37.8612 20.2241 38.1078 20.3671C38.3543 20.5102 38.6392 20.6065 38.9625 20.656C39.2858 20.7055 39.6282 20.7303 39.9898 20.7303ZM44.8059 20.6477V16.1745C44.8059 15.3052 44.9484 14.6807 45.2333 14.3011C45.5182 13.9215 45.9784 13.7316 46.614 13.7316C47.1729 13.7316 47.5619 13.9049 47.781 14.2516C48.0002 14.5982 48.1098 15.1237 48.1098 15.8279V20.6477H50.4438V15.3988C50.4438 14.8706 50.3973 14.3891 50.3041 13.9545C50.211 13.5198 50.0494 13.1512 49.8192 12.8486C49.5891 12.5459 49.2741 12.3093 48.8741 12.1388C48.4741 11.9682 47.9618 11.8829 47.3372 11.8829C46.8989 11.8829 46.4496 11.9957 45.9894 12.2213C45.5291 12.4469 45.1511 12.8073 44.8552 13.3025H44.8059V8.8623H42.4718V20.6477H44.8059ZM56.1475 20.8623C57.1118 20.8623 57.9337 20.6422 58.6131 20.2021C59.2925 19.7619 59.7966 19.0301 60.1253 18.0067H58.0707C57.994 18.2708 57.7858 18.5212 57.4461 18.7578C57.1064 18.9944 56.7009 19.1126 56.2297 19.1126C55.5722 19.1126 55.0682 18.9421 54.7175 18.601C54.3668 18.2598 54.1751 17.7096 54.1422 16.9503H60.2733C60.3171 16.2901 60.2623 15.6574 60.1089 15.0521C59.9555 14.4469 59.7062 13.9077 59.361 13.4345C59.0158 12.9613 58.5747 12.5845 58.0378 12.3038C57.5009 12.0232 56.8708 11.8829 56.1475 11.8829C55.501 11.8829 54.912 11.9985 54.3805 12.2296C53.8491 12.4607 53.3916 12.777 53.008 13.1787C52.6245 13.5803 52.3286 14.0563 52.1204 14.6065C51.9122 15.1567 51.8081 15.7509 51.8081 16.3891C51.8081 17.0494 51.9095 17.6546 52.1122 18.2048C52.3149 18.755 52.6026 19.2282 52.9752 19.6243C53.3477 20.0205 53.8025 20.3259 54.3394 20.5404C54.8764 20.755 55.4791 20.8623 56.1475 20.8623ZM57.9392 15.4648H54.1422C54.1532 15.2997 54.1888 15.1126 54.249 14.9036C54.3093 14.6945 54.4134 14.4964 54.5613 14.3093C54.7093 14.1223 54.9065 13.9655 55.1531 13.8389C55.3996 13.7124 55.7092 13.6491 56.0818 13.6491C56.6516 13.6491 57.0762 13.8032 57.3557 14.1113C57.6351 14.4194 57.8296 14.8706 57.9392 15.4648ZM63.988 20.6477V16.8018C63.988 16.4166 64.0264 16.059 64.1031 15.7289C64.1798 15.3988 64.3086 15.1099 64.4894 14.8623C64.6702 14.6147 64.9085 14.4194 65.2044 14.2763C65.5003 14.1333 65.8619 14.0618 66.2892 14.0618C66.4317 14.0618 66.5796 14.07 66.733 14.0865C66.8865 14.103 67.018 14.1223 67.1275 14.1443V11.9655C66.9412 11.9104 66.7714 11.8829 66.618 11.8829C66.3221 11.8829 66.0372 11.927 65.7633 12.015C65.4893 12.103 65.2318 12.2268 64.9907 12.3864C64.7496 12.5459 64.5359 12.7385 64.3497 12.9641C64.1634 13.1897 64.0154 13.4345 63.9059 13.6986H63.873V12.114H61.654V20.6477H63.988ZM71.9765 20.8623C72.9408 20.8623 73.7627 20.6422 74.4421 20.2021C75.1215 19.7619 75.6255 19.0301 75.9543 18.0067H73.8996C73.8229 18.2708 73.6147 18.5212 73.275 18.7578C72.9353 18.9944 72.5299 19.1126 72.0587 19.1126C71.4012 19.1126 70.8971 18.9421 70.5465 18.601C70.1958 18.2598 70.004 17.7096 69.9712 16.9503H76.1022C76.146 16.2901 76.0913 15.6574 75.9378 15.0521C75.7844 14.4469 75.5351 13.9077 75.19 13.4345C74.8448 12.9613 74.4037 12.5845 73.8668 12.3038C73.3298 12.0232 72.6997 11.8829 71.9765 11.8829C71.33 11.8829 70.741 11.9985 70.2095 12.2296C69.678 12.4607 69.2205 12.777 68.837 13.1787C68.4535 13.5803 68.1576 14.0563 67.9494 14.6065C67.7412 15.1567 67.6371 15.7509 67.6371 16.3891C67.6371 17.0494 67.7384 17.6546 67.9412 18.2048C68.1439 18.755 68.4315 19.2282 68.8041 19.6243C69.1767 20.0205 69.6315 20.3259 70.1684 20.5404C70.7054 20.755 71.308 20.8623 71.9765 20.8623ZM73.7681 15.4648H69.9712C69.9821 15.2997 70.0177 15.1126 70.078 14.9036C70.1383 14.6945 70.2424 14.4964 70.3903 14.3093C70.5382 14.1223 70.7355 13.9655 70.982 13.8389C71.2286 13.7124 71.5382 13.6491 71.9107 13.6491C72.4806 13.6491 72.9052 13.8032 73.1846 14.1113C73.4641 14.4194 73.6586 14.8706 73.7681 15.4648ZM80.5896 20.8623C81.0827 20.8623 81.5648 20.7523 82.036 20.5322C82.5072 20.3121 82.8908 19.9545 83.1866 19.4593H83.2359V20.6477H85.4549V12.114H83.1209V16.5872C83.1209 17.4565 82.9784 18.081 82.6935 18.4607C82.4086 18.8403 81.9484 19.0301 81.3128 19.0301C80.7539 19.0301 80.3649 18.8568 80.1457 18.5102C79.9266 18.1635 79.817 17.6381 79.817 16.9338V12.114H77.4829V17.363C77.4829 17.8912 77.5295 18.3726 77.6227 18.8073C77.7158 19.2419 77.8774 19.6106 78.1075 19.9132C78.3377 20.2158 78.6527 20.4496 79.0527 20.6147C79.4527 20.7798 79.9649 20.8623 80.5896 20.8623ZM89.63 20.6477V15.6959C89.63 15.2777 89.6903 14.9393 89.8108 14.6807C89.9313 14.4221 90.0765 14.2241 90.2464 14.0865C90.4162 13.949 90.5916 13.8554 90.7724 13.8059C90.9532 13.7564 91.0984 13.7316 91.2079 13.7316C91.5805 13.7316 91.8627 13.7949 92.0545 13.9215C92.2462 14.048 92.3832 14.2158 92.4654 14.4249C92.5476 14.634 92.5941 14.8623 92.6051 15.1099C92.6161 15.3575 92.6215 15.6078 92.6215 15.8609V20.6477H94.9556V15.8939C94.9556 15.6298 94.9748 15.3685 95.0131 15.1099C95.0515 14.8513 95.1282 14.6202 95.2433 14.4166C95.3583 14.2131 95.5172 14.048 95.7199 13.9215C95.9227 13.7949 96.1884 13.7316 96.5171 13.7316C96.8459 13.7316 97.1061 13.7867 97.2979 13.8967C97.4897 14.0067 97.6349 14.1553 97.7335 14.3424C97.8321 14.5294 97.8924 14.7495 97.9143 15.0026C97.9362 15.2557 97.9472 15.5253 97.9472 15.8114V20.6477H100.281V14.9366C100.281 14.3864 100.205 13.916 100.051 13.5253C99.8977 13.1347 99.684 12.8183 99.4101 12.5762C99.1361 12.3341 98.8074 12.158 98.4238 12.048C98.0403 11.938 97.6239 11.8829 97.1746 11.8829C96.5829 11.8829 96.0706 12.026 95.6377 12.3121C95.2049 12.5982 94.8625 12.9283 94.6104 13.3025C94.3803 12.7743 94.0434 12.4056 93.5995 12.1966C93.1557 11.9875 92.6654 11.8829 92.1284 11.8829C91.5696 11.8829 91.0737 12.004 90.6409 12.2461C90.208 12.4882 89.8382 12.8293 89.5314 13.2695H89.4985V12.114H87.2959V20.6477H89.63Z" fill="white"/>
<g opacity="0.6">
<path d="M8.946 11.2354L0.333496 15.1523L8.946 20.2406L17.5551 15.1523L8.946 11.2354Z" fill="white"/>
</g>
<g opacity="0.45">
<path d="M0.333496 15.1522L8.946 20.2405V0.862305L0.333496 15.1522Z" fill="white"/>
</g>
<g opacity="0.8">
<path d="M8.9458 0.862305V20.2405L17.5549 15.1522L8.9458 0.862305Z" fill="white"/>
</g>
<g opacity="0.45">
<path d="M0.333496 16.7842L8.946 28.9175V21.8725L0.333496 16.7842Z" fill="white"/>
</g>
<g opacity="0.8">
<path d="M8.9458 21.8725V28.9175L17.5617 16.7842L8.9458 21.8725Z" fill="white"/>
</g>
</svg>
