<svg width="91" height="30" viewBox="0 0 91 30" fill="none" xmlns="http://www.w3.org/2000/svg">
<path d="M9.90514 14.2629V14.2608C9.81397 14.2672 9.34327 14.2947 8.29586 14.2947C7.45835 14.2947 6.87104 14.2714 6.66325 14.2608V14.2629C3.44257 14.1209 1.04031 13.5611 1.04031 12.889C1.04031 12.219 3.44469 11.6571 6.66325 11.5151V13.7053C6.87316 13.7202 7.47743 13.7562 8.3107 13.7562C9.31146 13.7562 9.81185 13.7138 9.90514 13.7053V11.5172C13.1195 11.6614 15.5154 12.2211 15.5154 12.8911C15.5154 13.5611 13.1173 14.1209 9.90514 14.2651M9.90514 11.2903V9.3312H14.3895V6.34375H2.18101V9.3312H6.66537V11.2903C3.02063 11.4578 0.28125 12.1787 0.28125 13.0438C0.28125 13.9089 3.02275 14.6298 6.66537 14.7994V21.0796H9.90726V14.7994C13.5456 14.6319 16.2808 13.911 16.2808 13.0459C16.2808 12.183 13.5456 11.46 9.90726 11.2925" fill="white"/>
<path d="M30.9817 1.85989V5.02757H34.0603V7.40438H30.9605V12.2238C30.9605 13.2881 31.5478 13.8076 32.4086 13.8076C32.839 13.8076 33.3373 13.6719 33.7444 13.4683L34.514 15.8218C33.7232 16.1378 33.0659 16.2735 32.2284 16.2968C29.8071 16.388 28.2232 15.0077 28.2232 12.2238V7.40438H26.1411V5.02757H28.2232V2.15461L30.9817 1.85989ZM84.0583 4.87915L84.2618 6.16827C85.1227 4.78798 86.2761 4.58443 87.4083 4.58443C88.5617 4.58443 89.6706 5.03605 90.2813 5.64668L89.0367 8.0447C88.4706 7.56977 87.9511 7.31957 87.0458 7.31957C85.5976 7.31957 84.2618 8.08923 84.2618 10.148V16.0317H81.5013V4.87491L84.0583 4.87915ZM77.2925 9.15572C77.1123 7.70758 75.9801 6.98245 74.3962 6.98245C72.9036 6.98245 71.6802 7.70758 71.2731 9.15572H77.2925ZM71.2286 11.4414C71.4088 12.8217 72.6089 13.8182 74.5553 13.8182C75.573 13.8182 76.9088 13.4323 77.5427 12.7771L79.3068 14.52C78.13 15.7413 76.207 16.3307 74.5086 16.3307C70.6625 16.3307 68.3747 13.9539 68.3747 10.3791C68.3747 6.98457 70.6837 4.53991 74.3051 4.53991C78.0389 4.53991 80.3712 6.84888 79.9407 11.4414H71.2286ZM59.054 0.193359V6.39302C60.0505 5.1039 61.2718 4.71801 62.5397 4.71801C65.7074 4.71801 67.111 6.86796 67.111 10.1501V16.0339H64.3504V10.1735C64.3504 8.13588 63.2861 7.27717 61.8146 7.27717C60.1841 7.27717 59.054 8.65746 59.054 10.3325V16.036H56.2934V0.19548L59.054 0.193359ZM51.7221 1.73267V4.90035H54.8008V7.27717H51.7009V12.0965C51.7009 13.1609 52.2904 13.6804 53.1491 13.6804C53.5795 13.6804 54.0777 13.5447 54.4848 13.3411L55.2545 15.6946C54.4636 16.0105 53.8063 16.1462 52.9688 16.1696C50.5475 16.2607 48.9637 14.8783 48.9637 12.0965V7.27717H46.8816V4.90035H48.9637V2.02739L51.7221 1.73267ZM44.0955 9.15572C43.9153 7.70758 42.7831 6.98245 41.1992 6.98245C39.7066 6.98245 38.4832 7.70758 38.0761 9.15572H44.0955ZM38.0316 11.4414C38.2118 12.8217 39.4119 13.8182 41.3583 13.8182C42.376 13.8182 43.7118 13.4323 44.3457 12.7771L46.1098 14.52C44.933 15.7413 43.01 16.3307 41.3116 16.3307C37.4633 16.3307 35.1777 13.9539 35.1777 10.3791C35.1777 6.98457 37.4867 4.53991 41.106 4.53991C44.8397 4.53991 47.1699 6.84888 46.7416 11.4414H38.0316Z" fill="white"/>
<path d="M34.0493 29.395V28.1604H30.2478V26.3947H33.5834V25.2021H30.2478V23.7439H33.8816V22.5279H28.8455V29.395H34.0493ZM36.6023 29.395V26.7022H38.0838C38.5062 26.7022 38.7943 26.7752 38.948 26.9211C39.1018 27.0671 39.1818 27.3591 39.188 27.797L39.1973 28.4353C39.2004 28.6371 39.2206 28.8344 39.2578 29.0269C39.2765 29.1201 39.3075 29.2428 39.351 29.395H40.9304V29.2226C40.7937 29.1387 40.7067 29.0083 40.6695 28.8312C40.6446 28.7194 40.6322 28.5067 40.6322 28.193V27.7318C40.6322 27.2504 40.5662 26.8924 40.4342 26.6579C40.3022 26.4234 40.0778 26.2425 39.761 26.1152C40.1399 25.9847 40.4117 25.7619 40.5763 25.4466C40.7409 25.1314 40.8232 24.8107 40.8232 24.4846C40.8232 24.2144 40.7797 23.9737 40.6928 23.7625C40.6058 23.5513 40.4878 23.3587 40.3387 23.1848C40.1585 22.9736 39.9388 22.8136 39.6795 22.7049C39.4201 22.5962 39.0498 22.5372 38.5683 22.5279H35.2V29.395H36.6023ZM38.2283 25.5654H36.6023V23.7206H38.2702C38.5808 23.7206 38.8137 23.7609 38.969 23.8417C39.2454 23.9846 39.3836 24.2641 39.3836 24.6803C39.3836 25.0654 39.2408 25.3232 38.955 25.4536C38.7935 25.5282 38.5513 25.5654 38.2283 25.5654ZM44.9369 29.586C45.7351 29.586 46.3897 29.3515 46.9006 28.8825C47.4115 28.4135 47.7291 27.8048 47.8533 27.0562H46.4324C46.3361 27.4103 46.215 27.6759 46.069 27.8529C45.805 28.1821 45.4214 28.3467 44.9183 28.3467C44.4276 28.3467 44.023 28.1549 43.7047 27.7714C43.3863 27.3878 43.2271 26.8109 43.2271 26.0406C43.2271 25.2704 43.3778 24.6748 43.679 24.254C43.9803 23.8331 44.3918 23.6227 44.9136 23.6227C45.4261 23.6227 45.8128 23.7718 46.0737 24.07C46.2196 24.2377 46.3392 24.4862 46.4324 24.8154H47.8673C47.8455 24.3868 47.6871 23.9597 47.3921 23.5342C46.8579 22.7764 46.0131 22.3975 44.8577 22.3975C43.9943 22.3975 43.283 22.6801 42.724 23.2454C42.0811 23.8945 41.7596 24.8185 41.7596 26.0173C41.7596 27.1261 42.0423 27.9989 42.6075 28.6356C43.1728 29.2692 43.9492 29.586 44.9369 29.586ZM51.1145 27.3637V26.1059H48.4403V27.3637H51.1145ZM56.323 29.395V28.2256H53.374C53.4578 28.0858 53.5611 27.9632 53.6838 27.8576C53.8065 27.752 54.034 27.5811 54.3663 27.3451L54.8974 26.9677C55.3446 26.6509 55.6661 26.3636 55.8618 26.1059C56.1599 25.7176 56.309 25.2735 56.309 24.7734C56.309 24.1212 56.0978 23.5971 55.6754 23.2011C55.253 22.8051 54.6846 22.6071 53.9703 22.6071C53.0665 22.6071 52.4376 22.9441 52.0835 23.6181C51.8971 23.9721 51.7931 24.4365 51.7714 25.011H53.0618C53.0774 24.6321 53.1271 24.3557 53.2109 24.1818C53.3569 23.8805 53.6318 23.7299 54.0355 23.7299C54.3306 23.7299 54.5573 23.8246 54.7157 24.0141C54.8741 24.2035 54.9533 24.4411 54.9533 24.7269C54.9533 25.0778 54.8151 25.4008 54.5387 25.6959C54.3585 25.8853 53.9625 26.199 53.3507 26.637C52.6457 27.1401 52.1984 27.6169 52.009 28.0672C51.8133 28.4679 51.7092 28.9104 51.6968 29.395H56.323ZM59.3326 29.5627C60.1929 29.5627 60.7962 29.2614 61.1425 28.6589C61.4888 28.0563 61.662 27.1976 61.662 26.0826C61.662 24.9676 61.4888 24.1072 61.1425 23.5016C60.7962 22.896 60.1929 22.5931 59.3326 22.5931C58.4722 22.5931 57.8689 22.896 57.5226 23.5016C57.1763 24.1072 57.0032 24.9676 57.0032 26.0826C57.0032 27.1976 57.1763 28.0563 57.5226 28.6589C57.8689 29.2614 58.4722 29.5627 59.3326 29.5627ZM59.3326 28.4818C58.9381 28.4818 58.6772 28.2761 58.5499 27.8646C58.4226 27.453 58.3589 26.859 58.3589 26.0826C58.3589 25.2688 58.4226 24.6663 58.5499 24.275C58.6772 23.8836 58.9381 23.6879 59.3326 23.6879C59.727 23.6879 59.9856 23.8836 60.1083 24.275C60.2309 24.6663 60.2923 25.2688 60.2923 26.0826C60.2923 26.859 60.2309 27.453 60.1083 27.8646C59.9856 28.2761 59.727 28.4818 59.3326 28.4818Z" fill="white"/>
</svg>
