<svg width="158" height="39" viewBox="0 0 158 39" fill="none" xmlns="http://www.w3.org/2000/svg">
    <path d="M18.2987 11.7171L12.6004 0.641602L0 33.6273L7.06264 30.2164L12.9615 31.6209L17.2152 36.9179L21.7898 38.9243L26.0435 36.9179L30.4978 31.6209L36.2763 30.2164L43.5797 33.6273L30.8589 0.641602L25.1205 11.7171H18.2987Z" fill="black"/>
    <path d="M37.4817 21.1164L29.8869 30.5473L25.3476 35.9376L21.7454 33.4261L18.1411 35.935L13.6038 30.5473L6.00903 21.1164L12.7369 3.53125L17.6147 12.9112H25.876L30.7538 3.53125L37.4817 21.1164Z" fill="#FF7200"/>
    <path d="M15.8507 12.9111H10.8245L12.9546 7.34277L15.8507 12.9111Z" fill="#FF6700"/>
    <path d="M32.6649 12.9111H27.6387L30.5343 7.34277L32.6649 12.9111Z" fill="#FF6700"/>
    <path d="M13.6035 30.5471L7.15255 28.9666L2.12671 31.2622L6.00866 21.1162L13.6035 30.5471Z" fill="#E5E6E8"/>
    <path d="M41.3624 31.2622L36.3369 28.9666L29.886 30.5471L37.4808 21.1162L41.3624 31.2622Z" fill="#E5E6E8"/>
    <path d="M25.3476 35.9372L21.761 37.6044L18.1411 35.9346L21.7453 33.4258L25.3476 35.9372Z" fill="black"/>
    <path d="M18.2639 14.46L21.7453 23.2011L25.2267 14.46H18.2639Z" fill="#FF6700"/>
    <path d="M13.2517 20.9443H15.8034L18.2789 23.7071V25.7298L14.4704 23.0275L13.2517 20.9443Z" fill="black"/>
    <path d="M27.6862 20.9443L25.2107 23.7071V25.7298L29.0192 23.0271L30.2379 20.9443H27.6862Z" fill="black"/>
    <path d="M49.8296 29.2832V12.1504H52.6421V26.8926H59.9194V29.2832H49.8296ZM62.8843 29.2832V12.1504H65.6968V29.2832H62.8843ZM80.1108 24.6191C80.1108 25.6348 79.8608 26.5098 79.3608 27.2441C78.8687 27.9785 78.1577 28.541 77.228 28.9316C76.3062 29.3223 75.2046 29.5176 73.9233 29.5176C73.2983 29.5176 72.7007 29.4824 72.1304 29.4121C71.5601 29.3418 71.021 29.2402 70.5132 29.1074C70.0132 28.9668 69.5562 28.7988 69.1421 28.6035V25.9551C69.8374 26.2598 70.6147 26.5371 71.4741 26.7871C72.3335 27.0293 73.2085 27.1504 74.0991 27.1504C74.8257 27.1504 75.4272 27.0566 75.9038 26.8691C76.3882 26.6738 76.7476 26.4004 76.9819 26.0488C77.2163 25.6895 77.3335 25.2715 77.3335 24.7949C77.3335 24.2871 77.1968 23.8574 76.9233 23.5059C76.6499 23.1543 76.2358 22.834 75.6812 22.5449C75.1343 22.248 74.4468 21.9316 73.6187 21.5957C73.0562 21.3691 72.5171 21.1113 72.0015 20.8223C71.4937 20.5332 71.0405 20.1934 70.6421 19.8027C70.2437 19.4121 69.9272 18.9512 69.6929 18.4199C69.4663 17.8809 69.353 17.248 69.353 16.5215C69.353 15.5527 69.5835 14.7246 70.0444 14.0371C70.5132 13.3496 71.1694 12.8223 72.0132 12.4551C72.8647 12.0879 73.8569 11.9043 74.9897 11.9043C75.8882 11.9043 76.7319 11.998 77.521 12.1855C78.3179 12.373 79.0991 12.6387 79.8647 12.9824L78.9741 15.2441C78.271 14.9551 77.5874 14.7246 76.9233 14.5527C76.2671 14.3809 75.5952 14.2949 74.9077 14.2949C74.314 14.2949 73.8101 14.3848 73.396 14.5645C72.9819 14.7441 72.6655 14.998 72.4468 15.3262C72.2358 15.6465 72.1304 16.0293 72.1304 16.4746C72.1304 16.9746 72.2515 17.3965 72.4937 17.7402C72.7437 18.0762 73.1265 18.3848 73.6421 18.666C74.1655 18.9473 74.8374 19.2598 75.6577 19.6035C76.603 19.9941 77.4038 20.4043 78.0601 20.834C78.7241 21.2637 79.2319 21.7793 79.5835 22.3809C79.9351 22.9746 80.1108 23.7207 80.1108 24.6191ZM82.0093 24.0098V21.6777H88.0562V24.0098H82.0093ZM101.041 24.6191C101.041 25.6348 100.791 26.5098 100.291 27.2441C99.7983 27.9785 99.0874 28.541 98.1577 28.9316C97.2358 29.3223 96.1343 29.5176 94.853 29.5176C94.228 29.5176 93.6304 29.4824 93.0601 29.4121C92.4897 29.3418 91.9507 29.2402 91.4429 29.1074C90.9429 28.9668 90.4858 28.7988 90.0718 28.6035V25.9551C90.7671 26.2598 91.5444 26.5371 92.4038 26.7871C93.2632 27.0293 94.1382 27.1504 95.0288 27.1504C95.7554 27.1504 96.3569 27.0566 96.8335 26.8691C97.3179 26.6738 97.6772 26.4004 97.9116 26.0488C98.146 25.6895 98.2632 25.2715 98.2632 24.7949C98.2632 24.2871 98.1265 23.8574 97.853 23.5059C97.5796 23.1543 97.1655 22.834 96.6108 22.5449C96.064 22.248 95.3765 21.9316 94.5483 21.5957C93.9858 21.3691 93.4468 21.1113 92.9312 20.8223C92.4233 20.5332 91.9702 20.1934 91.5718 19.8027C91.1733 19.4121 90.8569 18.9512 90.6226 18.4199C90.396 17.8809 90.2827 17.248 90.2827 16.5215C90.2827 15.5527 90.5132 14.7246 90.9741 14.0371C91.4429 13.3496 92.0991 12.8223 92.9429 12.4551C93.7944 12.0879 94.7866 11.9043 95.9194 11.9043C96.8179 11.9043 97.6616 11.998 98.4507 12.1855C99.2476 12.373 100.029 12.6387 100.794 12.9824L99.9038 15.2441C99.2007 14.9551 98.5171 14.7246 97.853 14.5527C97.1968 14.3809 96.5249 14.2949 95.8374 14.2949C95.2437 14.2949 94.7397 14.3848 94.3257 14.5645C93.9116 14.7441 93.5952 14.998 93.3765 15.3262C93.1655 15.6465 93.0601 16.0293 93.0601 16.4746C93.0601 16.9746 93.1812 17.3965 93.4233 17.7402C93.6733 18.0762 94.0562 18.3848 94.5718 18.666C95.0952 18.9473 95.7671 19.2598 96.5874 19.6035C97.5327 19.9941 98.3335 20.4043 98.9897 20.834C99.6538 21.2637 100.162 21.7793 100.513 22.3809C100.865 22.9746 101.041 23.7207 101.041 24.6191ZM117.412 29.2832H114.177L108.845 21.502L107.158 22.873V29.2832H104.345V12.1504H107.158V20.3418C107.501 19.9199 107.849 19.498 108.201 19.0762C108.552 18.6543 108.904 18.2324 109.255 17.8105L114.083 12.1504H117.259L110.861 19.6504L117.412 29.2832ZM119.673 29.2832V12.1504H122.486V29.2832H119.673ZM141.306 29.2832H137.849L129.458 15.6074H129.353C129.384 16.0684 129.412 16.5566 129.435 17.0723C129.466 17.5879 129.49 18.1191 129.505 18.666C129.529 19.2129 129.548 19.7676 129.564 20.3301V29.2832H127.009V12.1504H130.443L138.822 25.7324H138.904C138.888 25.334 138.869 24.877 138.845 24.3613C138.822 23.8457 138.798 23.3145 138.775 22.7676C138.759 22.2129 138.748 21.6777 138.74 21.1621V12.1504H141.306V29.2832ZM155.697 24.6191C155.697 25.6348 155.447 26.5098 154.947 27.2441C154.455 27.9785 153.744 28.541 152.814 28.9316C151.892 29.3223 150.791 29.5176 149.509 29.5176C148.884 29.5176 148.287 29.4824 147.716 29.4121C147.146 29.3418 146.607 29.2402 146.099 29.1074C145.599 28.9668 145.142 28.7988 144.728 28.6035V25.9551C145.423 26.2598 146.201 26.5371 147.06 26.7871C147.919 27.0293 148.794 27.1504 149.685 27.1504C150.412 27.1504 151.013 27.0566 151.49 26.8691C151.974 26.6738 152.333 26.4004 152.568 26.0488C152.802 25.6895 152.919 25.2715 152.919 24.7949C152.919 24.2871 152.783 23.8574 152.509 23.5059C152.236 23.1543 151.822 22.834 151.267 22.5449C150.72 22.248 150.033 21.9316 149.205 21.5957C148.642 21.3691 148.103 21.1113 147.587 20.8223C147.08 20.5332 146.626 20.1934 146.228 19.8027C145.83 19.4121 145.513 18.9512 145.279 18.4199C145.052 17.8809 144.939 17.248 144.939 16.5215C144.939 15.5527 145.169 14.7246 145.63 14.0371C146.099 13.3496 146.755 12.8223 147.599 12.4551C148.451 12.0879 149.443 11.9043 150.576 11.9043C151.474 11.9043 152.318 11.998 153.107 12.1855C153.904 12.373 154.685 12.6387 155.451 12.9824L154.56 15.2441C153.857 14.9551 153.173 14.7246 152.509 14.5527C151.853 14.3809 151.181 14.2949 150.494 14.2949C149.9 14.2949 149.396 14.3848 148.982 14.5645C148.568 14.7441 148.251 14.998 148.033 15.3262C147.822 15.6465 147.716 16.0293 147.716 16.4746C147.716 16.9746 147.837 17.3965 148.08 17.7402C148.33 18.0762 148.712 18.3848 149.228 18.666C149.751 18.9473 150.423 19.2598 151.244 19.6035C152.189 19.9941 152.99 20.4043 153.646 20.834C154.31 21.2637 154.818 21.7793 155.169 22.3809C155.521 22.9746 155.697 23.7207 155.697 24.6191Z" fill="white"/>
</svg>
