<svg width="29" height="32" viewBox="0 0 29 32" fill="none" xmlns="http://www.w3.org/2000/svg">
<path fill-rule="evenodd" clip-rule="evenodd" d="M16.5653 0.0690465C17.0419 0.237457 17.3601 0.684301 17.3601 1.18524V11.5227H27.8027C28.2653 11.5227 28.6866 11.7865 28.8847 12.2003C29.0828 12.6141 29.0223 13.1039 28.7294 13.4583L13.7638 31.5653C13.4433 31.953 12.9112 32.0994 12.4347 31.931C11.9581 31.7625 11.6399 31.3157 11.6399 30.8148V20.4773H1.19726C0.734656 20.4773 0.313445 20.2135 0.115344 19.7997C-0.0827567 19.3859 -0.0222962 18.8961 0.270642 18.5417L15.2362 0.434743C15.5567 0.0470347 16.0888 -0.0993637 16.5653 0.0690465ZM3.72374 18.107H12.8372C13.4984 18.107 14.0344 18.6376 14.0344 19.2922V27.4946L25.2763 13.893H16.1628C15.5016 13.893 14.9656 13.3624 14.9656 12.7078V4.50542L3.72374 18.107Z" fill="#FF7200"/>
</svg>
