<svg xmlns="http://www.w3.org/2000/svg" width="47" height="23" viewBox="0 0 47 23" fill="none">
    <g clip-path="url(#clip0_3616_14260)">
        <path d="M19.1012 21.6346C19.0137 21.3729 18.855 21.1946 18.7402 20.9627C18.4611 20.5643 18.1329 20.2195 17.8046 19.8746C17.6897 19.833 17.6405 19.7141 17.5311 19.6665C17.4599 19.5654 17.3451 19.5119 17.2521 19.4346C17.066 19.28 16.8636 19.1492 16.6557 19.0184C16.2618 18.7449 15.7749 18.5725 15.2934 18.3941C14.7737 18.2574 14.2266 18.1563 13.6576 18.073C13.0941 17.9838 12.5306 17.9006 12.1039 17.6568C11.8577 17.5795 11.6771 17.4309 11.4638 17.312C11.2668 17.1693 11.0534 17.0504 10.8893 16.872C10.6869 16.7412 10.561 16.5212 10.4024 16.3428C10.3477 16.2239 10.2547 16.1525 10.2109 16.0217C10.1562 15.998 10.1398 15.9266 10.107 15.885C10.0687 15.8374 10.0687 15.7423 10.003 15.7245C9.97018 15.9682 9.98112 16.2596 10.003 16.5093C10.0304 16.6163 10.0413 16.7471 10.0687 16.8541C10.0851 16.9493 10.1671 17.1039 10.1343 17.1752C8.42736 17.0801 7.17998 16.4915 6.09672 15.7185C5.56057 15.332 5.10101 14.8623 4.67427 14.3569C4.48826 14.0775 4.28583 13.8099 4.1217 13.5007C3.9521 13.1975 3.80986 12.8526 3.65667 12.5316C3.405 11.8359 3.16975 11.1224 3.08221 10.2484C2.96732 9.43382 2.99468 8.39331 3.16428 7.6382C3.22446 7.22199 3.35029 6.87119 3.45971 6.5085C3.53084 6.34202 3.60743 6.17554 3.67308 6.00311C3.76609 5.86041 3.81533 5.6642 3.93022 5.53934C4.24206 4.90314 4.7071 4.42748 5.18307 3.96966C5.69734 3.5594 6.28274 3.22643 6.98849 3.02428C7.6669 2.8578 8.59149 2.82807 9.3246 3.00049C10.8127 3.33346 11.9343 4.05884 12.8753 4.98638C13.8272 5.89609 14.5603 7.04957 15.0637 8.45277C15.5834 9.78462 15.7639 11.8597 15.2989 13.3699C15.1074 13.251 14.9159 13.138 14.7245 13.0251C14.4947 12.9537 14.2704 12.8705 14.0023 12.8408C13.6795 12.8348 13.3622 12.8408 13.1543 12.9537C13.5756 12.9062 13.9148 13.031 14.1774 13.138C14.3305 13.2034 14.4181 13.2451 14.5384 13.3224C14.7737 13.471 14.9816 13.6078 15.1567 13.8099C15.6545 14.2856 16.0101 14.9158 16.1797 15.7482C16.1797 15.772 16.2071 15.7661 16.2016 15.7245C16.2235 15.7185 16.2344 15.7007 16.2454 15.6769C16.2727 15.6412 16.3056 15.6055 16.3329 15.5639C16.3876 15.4926 16.4423 15.4212 16.4806 15.332C16.5955 15.1834 16.6885 15.0169 16.7761 14.8445C16.9785 14.5234 17.1317 14.1548 17.3068 13.804C17.6077 13.0548 17.8539 12.2462 18.007 11.3305C18.3134 9.29707 17.9469 7.37064 17.3068 5.9496C16.6502 4.51667 15.7311 3.36913 14.5439 2.50699C13.3458 1.6508 11.9452 1.02055 10.0194 0.961093C10.0085 0.919473 9.99206 0.967039 9.95376 0.961093C8.93616 0.925419 8.11552 1.08001 7.30034 1.30595C6.92284 1.4427 6.52893 1.56162 6.1952 1.74594C5.81223 1.88269 5.50586 2.10863 5.15572 2.27511C5.02988 2.40592 4.8384 2.47132 4.7071 2.59618C4.5375 2.68537 4.41166 2.82807 4.24206 2.91725C3.96851 3.17887 3.67855 3.41075 3.41047 3.67831C3.14787 3.93993 2.91809 4.23722 2.66642 4.51072C2.62812 4.60585 2.56247 4.67126 2.49682 4.74261C2.45305 4.83179 2.39834 4.90909 2.32722 4.97449C2.29986 5.08152 2.21233 5.12314 2.1795 5.23016C2.10838 5.28962 2.09197 5.40853 2.0099 5.46205C1.93878 5.65231 1.81295 5.78906 1.73088 5.96744C1.63241 6.13986 1.55581 6.33013 1.45733 6.49661C1.30415 6.88309 1.14002 7.25767 1.01418 7.67387C0.882881 8.07819 0.773462 8.50628 0.696868 8.97005C0.614803 9.40409 0.538209 9.96894 0.549151 10.4268C0.494442 10.5932 0.538209 10.9024 0.549151 11.0986C0.549151 11.1343 0.527267 11.1462 0.527267 11.17C0.527267 11.39 0.581977 11.6575 0.592919 11.7943C0.636687 12.2997 0.718752 12.7694 0.850055 13.1797C0.93212 13.6375 1.10719 13.9942 1.23302 14.4045C1.42451 14.7493 1.55581 15.1596 1.78559 15.4688C1.95519 15.8315 2.19592 16.1169 2.4257 16.4142C2.67189 16.6996 2.91809 16.9909 3.21352 17.2228C3.75515 17.7341 4.38978 18.1444 5.08459 18.4952C6.38122 19.1789 8.31794 19.6249 10.0577 19.5119C10.5009 19.4465 10.9495 19.387 11.3543 19.28C11.7264 19.1314 12.1586 19.0422 12.6072 18.9827C13.6303 18.9114 14.5166 19.0125 15.3044 19.2622C16.1031 19.4941 16.7925 19.8449 17.3888 20.3027C17.7061 20.5049 17.9688 20.7665 18.2368 21.0162C18.5104 21.2719 18.7292 21.587 18.9809 21.8724C19.0137 21.9794 19.0794 22.0567 19.1286 22.1518C19.1943 22.2291 19.1614 22.4075 19.3201 22.3837C19.4186 22.2767 19.3037 22.1221 19.2982 21.9913C19.1997 21.8783 19.1778 21.7297 19.1012 21.6346Z" fill="white"/>
        <path d="M15.1295 15.3082C15.1076 15.3082 15.1021 15.3261 15.0857 15.332C15.0474 15.4212 15.0638 15.5639 15.0857 15.6531C15.2006 15.9088 15.2389 16.2417 15.4905 16.3487C15.6109 16.3071 15.6 16.1169 15.5945 15.9325C15.5398 15.7066 15.4632 15.5044 15.3374 15.3558C15.2498 15.3201 15.1896 15.2607 15.1295 15.3082ZM13.6414 15.9563C13.6414 15.9444 13.6249 15.9325 13.6195 15.9563C13.4116 15.9266 13.3405 16.0515 13.2365 16.1406C13.056 16.6579 13.3459 17.1633 13.8547 17.1574C14.0572 17.1039 14.183 16.9612 14.2158 16.7174C14.1885 16.2833 14.0189 16.0039 13.6414 15.9563Z" fill="white"/>
        <path d="M25.9071 15.1364C25.9892 15.511 26.1643 15.7786 26.3612 16.0283C26.5582 16.278 26.788 16.4861 27.067 16.6407C27.3296 16.8191 27.6141 16.9677 27.9424 17.0688C28.101 17.1283 28.2542 17.1996 28.4512 17.2234C28.5879 17.3067 28.7521 17.3483 28.763 17.5623C28.7575 17.818 28.5989 17.9131 28.3964 17.9607C28.194 17.9131 27.9424 17.9191 27.7728 17.8358C27.346 17.7823 27.0013 17.6337 26.6403 17.4969C25.9509 17.2056 25.371 16.7834 24.8895 16.2661C24.7911 16.0878 24.6543 15.9451 24.5503 15.7726C24.4464 15.6002 24.3753 15.3921 24.2659 15.2197C23.4233 15.1008 22.8489 14.6846 22.3455 14.203C21.8805 13.6262 21.5085 12.9365 21.3553 12.0209C21.1747 11.1409 21.2295 10.0409 21.4428 9.19067C21.9079 7.54369 22.8817 6.44967 24.7199 6.30103C25.2287 6.31886 25.6719 6.38427 26.0767 6.55075C26.4871 6.71128 26.8755 7.00857 27.1819 7.31775C27.2092 7.34154 27.2202 7.34748 27.2366 7.37721C27.3022 7.47829 27.4609 7.62099 27.5484 7.74585C27.5649 7.76963 27.5594 7.81125 27.5758 7.84098C27.6086 7.89449 27.6579 7.91828 27.6907 7.96584C27.7071 7.99557 27.7016 8.03125 27.718 8.05503C27.7399 8.0907 27.7673 8.14422 27.8001 8.20962C27.811 8.2334 27.8493 8.25124 27.8548 8.26908C27.9041 8.37015 27.9259 8.49502 27.9697 8.60799C28.0135 8.7269 28.0737 8.82798 28.112 8.9469C28.2214 9.2977 28.2925 9.7139 28.3363 10.142C28.4457 11.3787 28.2214 12.4846 27.8001 13.3051C27.6031 13.7332 27.3296 14.084 27.0068 14.3813C26.7114 14.7202 26.3065 14.9224 25.9071 15.1364ZM24.5503 7.39505C24.3041 7.41289 24.1564 7.53775 23.954 7.6091C23.8227 7.7399 23.6586 7.84098 23.5601 8.00746C23.396 8.10854 23.3522 8.33448 23.2209 8.46529C23.1115 8.76258 23.0075 9.09554 22.9364 9.48202C22.8708 9.86255 22.827 10.2906 22.8215 10.7128C22.816 11.7711 23.0239 12.8235 23.4124 13.4478C23.6422 13.7511 23.9212 14.0008 24.2604 14.1851C24.4573 14.203 24.6105 14.2743 24.8239 14.2803C24.9443 14.2327 25.1412 14.2803 25.2178 14.1851C25.3929 14.197 25.4312 14.0722 25.5844 14.0603C25.6664 13.9711 25.754 13.8997 25.8689 13.8462C25.9728 13.7214 26.0713 13.5965 26.1807 13.4776C26.2354 13.3884 26.2682 13.2635 26.3503 13.1981C26.8427 12.1755 26.8974 10.3025 26.5746 9.11338C26.4542 8.67934 26.2846 8.32853 26.0932 8.03719C25.8853 7.80531 25.6391 7.6091 25.36 7.45451C25.1357 7.40099 24.9224 7.33559 24.6269 7.36532C24.6105 7.36532 24.5941 7.37126 24.5996 7.39505C24.5886 7.39505 24.5722 7.39505 24.5503 7.39505ZM30.5192 6.53291C30.9623 6.55075 31.4821 6.49129 31.876 6.56264C31.9635 6.71128 31.9307 6.88966 31.9307 7.05614C31.9635 9.30959 31.9307 11.7295 31.9307 14.0305C31.9307 14.2149 31.9362 14.4051 31.9307 14.5835C31.9252 14.7381 31.9635 14.9046 31.876 15.0473C31.679 15.1008 31.3945 15.077 31.1429 15.077C30.8748 15.077 30.6122 15.1186 30.4371 15.0175C30.3879 12.2944 30.3879 9.35715 30.4371 6.62804C30.4481 6.58048 30.4754 6.55075 30.5192 6.53291ZM33.9112 6.53291H35.2406C35.361 6.71128 35.3993 6.97884 35.4376 7.24046C35.837 8.89338 36.2309 10.5523 36.5974 12.2468C36.685 12.2587 36.6576 12.1457 36.685 12.0922C36.7233 12.0506 36.7014 11.9495 36.7397 11.9079C36.7561 11.7711 36.8327 11.6998 36.8272 11.5393C36.9257 11.3312 36.9585 11.0458 37.0515 10.8317C37.1664 10.3323 37.3196 9.86849 37.4509 9.38688C37.5767 8.88744 37.7463 8.43556 37.8448 7.91233C38.0308 7.49018 38.0746 6.91344 38.2989 6.53291H38.8624C39.0649 6.94911 39.1414 7.50207 39.3165 7.94801C39.4314 8.44745 39.5901 8.89933 39.7104 9.39283C39.9895 10.3501 40.2794 11.2955 40.5311 12.2825C40.646 12.0982 40.646 11.789 40.728 11.5749C40.7773 11.3312 40.821 11.0814 40.8976 10.8674C41.1165 9.89227 41.3244 8.91122 41.576 7.97773C41.669 7.49018 41.762 6.99074 41.9152 6.56264C42.2435 6.50913 42.7468 6.50913 43.0751 6.56264C43.1024 6.92533 42.9492 7.31775 42.8508 7.63882C42.7961 8.03125 42.6648 8.33448 42.5936 8.71501C42.3912 9.41067 42.238 10.1479 42.0301 10.8377C41.8715 11.5749 41.6581 12.2527 41.494 12.99C41.3845 13.3289 41.308 13.7035 41.2095 14.0662C41.1001 14.3992 41.0618 14.8094 40.8976 15.0829H40.1043C39.9019 14.6965 39.8308 14.1732 39.6502 13.763C39.2563 12.4073 38.8187 11.1052 38.4357 9.73768C38.3044 9.88633 38.3044 10.1896 38.2114 10.3798C38.1512 10.6117 38.091 10.8436 38.0144 11.0576C37.905 11.5274 37.7409 11.9257 37.6479 12.4073C37.4892 12.8295 37.3743 13.2992 37.254 13.763C37.0898 14.1673 37.0296 14.6846 36.8272 15.0532C36.6193 15.1246 36.2911 15.0651 36.0339 15.0829C35.837 14.8392 35.8151 14.3992 35.6947 14.0662C35.6017 13.7214 35.5361 13.3408 35.4157 13.0198C35.2625 12.2706 35.0327 11.6106 34.8796 10.8674C34.6771 10.1777 34.5021 9.45823 34.316 8.74474C34.2121 8.40583 34.1355 8.04314 34.0316 7.69828C33.9823 7.32964 33.7525 6.99668 33.8346 6.59237C33.8455 6.56264 33.8784 6.5448 33.9112 6.53291ZM45.0775 6.53291C45.5206 6.55075 46.0349 6.49129 46.4343 6.56264C46.5327 6.88371 46.489 7.22857 46.489 7.57342V14.0246C46.489 14.3754 46.5273 14.7143 46.4343 15.0413C46.1279 15.077 45.6793 15.0948 45.3018 15.071C45.1924 15.0651 45.061 15.1008 44.9899 15.0116C44.8914 14.6905 44.9352 14.3516 44.9352 13.9949V7.6091C44.9352 7.22262 44.9024 6.84804 44.9899 6.59237C45.0118 6.56264 45.0446 6.5448 45.0775 6.53291Z" fill="white"/>
    </g>
    <defs>
        <clipPath id="clip0_3616_14260">
            <rect width="46" height="21.4286" fill="white" transform="translate(0.5 0.943848)"/>
        </clipPath>
    </defs>
</svg>
