<svg width="33" height="32" viewBox="0 0 33 32" fill="none" xmlns="http://www.w3.org/2000/svg">
<path fill-rule="evenodd" clip-rule="evenodd" d="M23.4291 2.63845C22.3917 2.2463 21.2595 2.17935 20.1831 2.44651C19.4071 2.63911 18.6867 2.99876 18.0701 3.49612C18.8924 4.74923 19.34 6.22456 19.34 7.74603C19.34 9.26751 18.8924 10.7428 18.0701 11.9959C18.6867 12.4933 19.4071 12.853 20.1831 13.0456C21.2595 13.3127 22.3917 13.2458 23.4291 12.8536C24.4666 12.4615 25.36 11.7627 25.9905 10.8503C26.621 9.93788 26.9587 8.8551 26.9587 7.74603C26.9587 6.63696 26.621 5.55419 25.9905 4.64179C25.36 3.72938 24.4666 3.03061 23.4291 2.63845ZM16.5462 13.7023C17.4402 14.4455 18.4942 14.9814 19.6324 15.264C21.1594 15.643 22.7657 15.548 24.2373 14.9917C25.709 14.4354 26.9764 13.4441 27.8709 12.1497C28.7653 10.8554 29.2444 9.31936 29.2444 7.74603C29.2444 6.1727 28.7653 4.63668 27.8709 3.34233C26.9764 2.04799 25.709 1.05671 24.2373 0.500398C22.7657 -0.0559195 21.1594 -0.150895 19.6324 0.228108C18.4942 0.510625 17.4402 1.04652 16.5462 1.78978C15.161 0.637956 13.4104 1.59743e-06 11.594 1.59743e-06C9.53963 1.59743e-06 7.5694 0.816099 6.11673 2.26876C4.66407 3.72142 3.84797 5.69166 3.84797 7.74603C3.84797 9.80041 4.66407 11.7706 6.11673 13.2233C7.5694 14.676 9.53963 15.4921 11.594 15.4921C13.4104 15.4921 15.161 14.8541 16.5462 13.7023ZM11.594 2.28572C10.1458 2.28572 8.75699 2.861 7.73298 3.88501C6.70897 4.90901 6.13369 6.29787 6.13369 7.74603C6.13369 9.1942 6.70897 10.5831 7.73298 11.6071C8.75699 12.6311 10.1458 13.2064 11.594 13.2064C13.0422 13.2064 14.431 12.6311 15.455 11.6071C16.479 10.5831 17.0543 9.1942 17.0543 7.74603C17.0543 6.29787 16.479 4.90901 15.455 3.88501C14.431 2.861 13.0422 2.28572 11.594 2.28572ZM16.545 19.3302C18.0799 18.5602 19.776 18.1573 21.4992 18.1573C23.4386 18.1574 25.3438 18.668 27.0233 19.6378C28.7027 20.6076 30.0974 22.0025 31.0669 23.6822C32.0364 25.3618 32.5466 27.267 32.5464 29.2064C32.5464 29.2064 32.5464 29.2063 32.5464 29.2064V30.8571C32.5464 31.4883 32.0347 32 31.4035 32H1.68924C1.05806 32 0.546387 31.4883 0.546387 30.8571V29.2064C0.546387 26.2763 1.71033 23.4663 3.78216 21.3945C5.85399 19.3227 8.664 18.1587 11.594 18.1587C13.3292 18.1587 15.0224 18.567 16.545 19.3302ZM18.8309 20.8591C19.0282 21.0301 19.22 21.2087 19.4059 21.3945C21.4777 23.4663 22.6416 26.2763 22.6416 29.2064V29.7143H30.2607V29.2064C30.2609 27.6682 29.8562 26.157 29.0873 24.8248C28.3183 23.4927 27.2123 22.3864 25.8803 21.6172C24.5482 20.8481 23.0372 20.4431 21.4991 20.443C20.5898 20.443 19.6899 20.5845 18.8309 20.8591ZM20.3559 29.7143V29.2064C20.3559 26.8825 19.4328 24.6539 17.7896 23.0107C16.1464 21.3676 13.9178 20.4444 11.594 20.4444C9.2702 20.4444 7.04158 21.3676 5.3984 23.0107C3.75523 24.6539 2.8321 26.8825 2.8321 29.2064V29.7143H20.3559Z" fill="#FF7200"/>
</svg>
