<svg width="33" height="32" viewBox="0 0 33 32" fill="none" xmlns="http://www.w3.org/2000/svg">
<path fill-rule="evenodd" clip-rule="evenodd" d="M15.6054 0.255694C15.9853 -0.0852314 16.5611 -0.0852314 16.9411 0.255694C20.7434 3.66736 25.7438 5.43127 30.8452 5.16036C31.3203 5.13513 31.7474 5.44818 31.8664 5.90886C32.3098 7.62539 32.5465 9.42338 32.5465 11.2772C32.5465 21.2342 25.7374 29.5971 16.5224 31.9684C16.359 32.0105 16.1875 32.0105 16.024 31.9684C6.80913 29.5971 0.000191987 21.2327 6.73545e-06 11.2776C-0.00143027 9.46644 0.227078 7.66244 0.680051 5.90885C0.799051 5.44817 1.22617 5.13513 1.7013 5.16036C6.80263 5.43127 11.8031 3.66736 15.6054 0.255694ZM6.73545e-06 11.2776C6.73545e-06 11.2775 6.73545e-06 11.2773 6.73545e-06 11.2772H1.00001L7.03347e-06 11.278C6.91426e-06 11.2779 6.85466e-06 11.2777 6.73545e-06 11.2776ZM2.43287 7.18553C2.14415 8.52921 1.99889 9.90051 2.00001 11.2764L2.00001 11.2772C2.00001 20.208 8.04741 27.7307 16.2732 29.9656C24.4991 27.7307 30.5464 20.2097 30.5464 11.2772C30.5464 9.87225 30.3968 8.50413 30.1136 7.18553C25.0693 7.25473 20.1634 5.5294 16.2732 2.31906C12.383 5.52941 7.47711 7.25473 2.43287 7.18553ZM22.0714 12.2671C22.4619 12.6576 22.4619 13.2908 22.0714 13.6813L15.2833 20.4694C14.8928 20.8599 14.2596 20.8599 13.8691 20.4694L10.475 17.0754C10.0845 16.6848 10.0845 16.0517 10.475 15.6611C10.8656 15.2706 11.4987 15.2706 11.8893 15.6611L14.5762 18.3481L20.6572 12.2671C21.0477 11.8766 21.6809 11.8766 22.0714 12.2671Z" fill="#FF7200"/>
</svg>
