<svg width="32" height="32" viewBox="0 0 32 32" fill="none" xmlns="http://www.w3.org/2000/svg">
<path fill-rule="evenodd" clip-rule="evenodd" d="M16 2C12.287 2 8.72601 3.475 6.1005 6.1005C3.475 8.72601 2 12.287 2 16C2 17.8385 2.36212 19.659 3.06569 21.3576C3.76925 23.0561 4.80048 24.5995 6.1005 25.8995C7.40053 27.1995 8.94387 28.2307 10.6424 28.9343C12.341 29.6379 14.1615 30 16 30C17.8385 30 19.659 29.6379 21.3576 28.9343C23.0561 28.2307 24.5995 27.1995 25.8995 25.8995C27.1995 24.5995 28.2307 23.0561 28.9343 21.3576C29.6379 19.659 30 17.8385 30 16C30 12.287 28.525 8.72601 25.8995 6.1005C23.274 3.475 19.713 2 16 2ZM4.68629 4.68629C7.68687 1.68571 11.7565 0 16 0C20.2435 0 24.3131 1.68571 27.3137 4.68629C30.3143 7.68687 32 11.7565 32 16C32 18.1011 31.5861 20.1817 30.7821 22.1229C29.978 24.0641 28.7994 25.828 27.3137 27.3137C25.828 28.7994 24.0641 29.978 22.1229 30.7821C20.1817 31.5861 18.1011 32 16 32C13.8989 32 11.8183 31.5861 9.87706 30.7821C7.93585 29.978 6.17203 28.7994 4.68629 27.3137C3.20055 25.828 2.022 24.0641 1.21793 22.1229C0.413852 20.1817 0 18.1011 0 16C5.96046e-08 11.7565 1.68571 7.68687 4.68629 4.68629ZM16 8.33333C16.5523 8.33333 17 8.78105 17 9.33333V15.5858L21.7071 20.2929C22.0976 20.6834 22.0976 21.3166 21.7071 21.7071C21.3166 22.0976 20.6834 22.0976 20.2929 21.7071L15.2929 16.7071C15.1054 16.5196 15 16.2652 15 16V9.33333C15 8.78105 15.4477 8.33333 16 8.33333Z" fill="#FF7200"/>
</svg>
