<svg width="98" height="25" viewBox="0 0 98 25" fill="none" xmlns="http://www.w3.org/2000/svg">
<g clip-path="url(#clip0_3228_31948)">
<mask id="mask0_3228_31948" style="mask-type:luminance" maskUnits="userSpaceOnUse" x="0" y="0" width="98" height="25">
<path d="M98 0.297852H0V24.3593H98V0.297852Z" fill="white"/>
</mask>
<g mask="url(#mask0_3228_31948)">
<path d="M25.7393 8.83984H35.6537V10.7083H31.7642V21.1184H29.6288V10.6702H25.7393V8.83984ZM35.2342 12.1955H37.0645V13.9114H37.1027C37.1789 13.6826 37.2933 13.4539 37.4459 13.2251C37.5984 12.9963 37.8272 12.7675 38.056 12.6149C38.2848 12.4243 38.5517 12.2718 38.8186 12.1574C39.0856 12.043 39.3906 11.9667 39.6957 11.9667C39.9245 11.9667 40.077 11.9667 40.1533 11.9667C40.2295 11.9667 40.3439 12.0048 40.4202 12.0048V13.8733C40.2677 13.8352 40.1533 13.8352 40.0007 13.797C39.8482 13.797 39.7338 13.7589 39.5813 13.7589C39.2381 13.7589 38.933 13.8352 38.6661 13.9496C38.361 14.064 38.1323 14.2928 37.9035 14.5216C37.6747 14.7885 37.5221 15.0935 37.3696 15.4749C37.2552 15.8562 37.1789 16.2756 37.1789 16.7714V21.004H35.2342V12.1955ZM49.4194 21.0803H47.5128V19.8601H47.4747C47.2459 20.3177 46.8645 20.6609 46.407 20.9278C45.9494 21.1947 45.4537 21.3472 44.9579 21.3472C43.7758 21.3472 42.9369 21.0803 42.4412 20.4702C41.9074 19.8982 41.6786 19.0212 41.6786 17.8391V12.1955H43.6233V17.6484C43.6233 18.411 43.7758 18.983 44.0809 19.2881C44.386 19.5932 44.8054 19.7838 45.3393 19.7838C45.7587 19.7838 46.1019 19.7075 46.3688 19.5932C46.6358 19.4788 46.8646 19.2881 47.0171 19.0974C47.2077 18.9068 47.3221 18.6398 47.3984 18.3348C47.4747 18.0297 47.5128 17.7247 47.5128 17.3815V12.2336H49.4575V21.0803H49.4194ZM52.7751 18.2204C52.8513 18.7924 53.042 19.1737 53.4233 19.4406C53.8046 19.6694 54.2622 19.7838 54.7961 19.7838C54.9867 19.7838 55.1774 19.7838 55.4062 19.7457C55.635 19.7075 55.8638 19.6694 56.0544 19.5932C56.2451 19.5169 56.4358 19.4025 56.5502 19.25C56.6646 19.0974 56.7408 18.9068 56.7408 18.6398C56.7408 18.3729 56.6264 18.1823 56.4739 18.0297C56.2832 17.8772 56.0926 17.7628 55.8256 17.6484C55.5587 17.5721 55.2537 17.4577 54.9105 17.3815C54.5673 17.3052 54.2241 17.2289 53.8809 17.1527C53.4996 17.0764 53.1564 16.962 52.8132 16.8476C52.47 16.7332 52.1649 16.5807 51.898 16.39C51.6311 16.1994 51.4023 15.9325 51.2498 15.6274C51.0972 15.3223 51.021 14.941 51.021 14.5216C51.021 14.0258 51.1354 13.6445 51.3642 13.3013C51.593 12.9581 51.898 12.7293 52.2412 12.5005C52.6225 12.3099 53.0038 12.1574 53.4614 12.0811C53.919 12.0048 54.3385 11.9667 54.7198 11.9667C55.1774 11.9667 55.635 12.0048 56.0163 12.1192C56.4358 12.1955 56.8171 12.3861 57.1603 12.5768C57.5035 12.8056 57.7704 13.0725 57.9992 13.4157C58.228 13.7589 58.3805 14.1784 58.4186 14.6741H56.3595C56.2832 14.2165 56.0544 13.8733 55.7112 13.7208C55.3681 13.5682 54.9867 13.492 54.5673 13.492C54.4147 13.492 54.2622 13.492 54.0716 13.5301C53.8809 13.5682 53.6902 13.6064 53.5377 13.6445C53.3852 13.7208 53.2326 13.797 53.1182 13.9114C53.0039 14.0258 52.9276 14.1784 52.9276 14.369C52.9276 14.5978 53.0039 14.7885 53.1945 14.941C53.347 15.0935 53.5758 15.2079 53.8428 15.3223C54.1097 15.3986 54.4147 15.513 54.7579 15.5893C55.1011 15.6655 55.4443 15.7418 55.8256 15.8181C56.1688 15.8943 56.512 16.0087 56.8552 16.1231C57.1984 16.2375 57.5035 16.39 57.7704 16.5807C58.0373 16.7714 58.2661 17.0383 58.4186 17.3052C58.5712 17.5721 58.6856 17.9535 58.6856 18.411C58.6856 18.9449 58.5712 19.3644 58.3042 19.7457C58.0754 20.127 57.7323 20.3939 57.3891 20.6227C57.0077 20.8515 56.5883 21.004 56.0926 21.1184C55.635 21.2328 55.1774 21.271 54.6817 21.271C54.1097 21.271 53.614 21.1947 53.1182 21.0803C52.6607 20.9659 52.2412 20.7753 51.898 20.5083C51.5548 20.2414 51.2879 19.9363 51.0591 19.555C50.8684 19.1737 50.754 18.7161 50.754 18.1823L52.7751 18.2204ZM59.2194 12.1955H60.7066V9.52623H62.6513V12.1955H64.4054V13.6445H62.6513V18.3729C62.6513 18.5636 62.6513 18.7542 62.6895 18.9068C62.6895 19.0593 62.7657 19.1737 62.8039 19.2881C62.8801 19.4025 62.9564 19.4788 63.0708 19.5169C63.1852 19.555 63.3758 19.5932 63.6046 19.5932C63.7572 19.5932 63.8716 19.5932 64.0241 19.5932C64.1766 19.5932 64.291 19.555 64.4435 19.5169V21.0422C64.2147 21.0803 64.0241 21.0803 63.7953 21.1184C63.6046 21.1566 63.3758 21.1566 63.147 21.1566C62.6132 21.1566 62.2319 21.1184 61.8887 21.004C61.5836 20.9278 61.3167 20.7753 61.1642 20.5846C60.9735 20.3939 60.8591 20.1651 60.7828 19.8601C60.7066 19.5932 60.6684 19.25 60.6684 18.8686V13.6826H59.1813L59.2194 12.1955ZM65.8163 12.1955H67.6848V13.4157H67.7229C67.9898 12.8819 68.3712 12.5387 68.8669 12.3099C69.3626 12.0811 69.8965 11.9667 70.4684 11.9667C71.1548 11.9667 71.7649 12.0811 72.2988 12.348C72.8326 12.5768 73.2521 12.92 73.5953 13.3776C73.9385 13.797 74.2054 14.3309 74.3579 14.8647C74.5486 15.4367 74.6249 16.0468 74.6249 16.6951C74.6249 17.3052 74.5486 17.8772 74.3961 18.411C74.2435 18.983 74.0147 19.4788 73.7097 19.8982C73.4046 20.3177 72.9852 20.6609 72.5276 20.9278C72.0319 21.1947 71.498 21.3091 70.8116 21.3091C70.5447 21.3091 70.2396 21.271 69.9727 21.2328C69.7058 21.1947 69.4007 21.0803 69.1338 20.9659C68.8669 20.8515 68.6381 20.699 68.4093 20.5083C68.1805 20.3177 67.9898 20.127 67.8373 19.8982H67.7992V24.3216H65.8544V12.1955H65.8163ZM72.642 16.657C72.642 16.2756 72.6039 15.8562 72.4895 15.4749C72.3751 15.0935 72.2225 14.7503 72.0319 14.4834C71.8412 14.1784 71.5743 13.9496 71.2692 13.797C70.9642 13.6064 70.621 13.5301 70.2015 13.5301C69.3626 13.5301 68.7525 13.797 68.333 14.369C67.9136 14.941 67.7229 15.7037 67.7229 16.657C67.7229 17.1146 67.7611 17.534 67.8754 17.9153C67.9898 18.2967 68.1424 18.6398 68.3712 18.9068C68.6 19.1737 68.8288 19.4025 69.1338 19.555C69.4389 19.7075 69.7821 19.7838 70.2015 19.7838C70.6591 19.7838 71.0404 19.7075 71.3455 19.5169C71.6505 19.3262 71.9175 19.0974 72.1081 18.7924C72.2988 18.4873 72.4513 18.1823 72.5276 17.8009C72.6039 17.4196 72.642 17.0383 72.642 16.657ZM76.0739 8.83984H78.0186V10.7083H76.0739V8.83984ZM76.0739 12.1955H78.0186V21.0803H76.0739V12.1955ZM79.7727 8.83984H81.7175V21.0803H79.7727V8.83984ZM87.7424 21.3091C87.0179 21.3091 86.4077 21.1947 85.8358 20.9659C85.2638 20.7371 84.8062 20.3939 84.4249 20.0126C84.0435 19.5932 83.7385 19.0974 83.5478 18.5254C83.3572 17.9535 83.2428 17.3052 83.2428 16.657C83.2428 15.9706 83.3572 15.3605 83.5478 14.7885C83.7385 14.2165 84.0435 13.7208 84.4249 13.3013C84.8062 12.8819 85.2638 12.5768 85.8358 12.348C86.4077 12.1192 87.0179 12.0048 87.7424 12.0048C88.4669 12.0048 89.077 12.1192 89.649 12.348C90.221 12.5768 90.6786 12.92 91.0599 13.3013C91.4412 13.7208 91.7463 14.2165 91.9369 14.7885C92.1276 15.3605 92.242 15.9706 92.242 16.657C92.242 17.3433 92.1276 17.9535 91.9369 18.5254C91.7463 19.0974 91.4412 19.5932 91.0599 20.0126C90.6786 20.4321 90.221 20.7371 89.649 20.9659C89.077 21.1947 88.4669 21.3091 87.7424 21.3091ZM87.7424 19.7838C88.1618 19.7838 88.5432 19.7075 88.8863 19.5169C89.1914 19.3262 89.4583 19.0974 89.6871 18.7924C89.8778 18.4873 90.0303 18.1441 90.1447 17.8009C90.221 17.4196 90.2972 17.0383 90.2972 16.657C90.2972 16.2756 90.2591 15.8943 90.1447 15.513C90.0684 15.1317 89.8778 14.7885 89.6871 14.5216C89.4965 14.2165 89.2295 13.9877 88.8863 13.797C88.5813 13.6064 88.2 13.5301 87.7424 13.5301C87.3229 13.5301 86.9416 13.6064 86.5984 13.797C86.2933 13.9877 86.0264 14.2165 85.7976 14.5216C85.607 14.8266 85.4544 15.1317 85.34 15.513C85.2638 15.8943 85.1875 16.2756 85.1875 16.657C85.1875 17.0383 85.2256 17.4196 85.34 17.8009C85.4163 18.1823 85.607 18.5254 85.7976 18.7924C85.9883 19.0974 86.2552 19.3262 86.5984 19.5169C86.9416 19.7075 87.3229 19.7838 87.7424 19.7838ZM92.7758 12.1955H94.263V9.52623H96.2077V12.1955H97.9618V13.6445H96.2077V18.3729C96.2077 18.5636 96.2077 18.7542 96.2459 18.9068C96.2459 19.0593 96.3221 19.1737 96.3603 19.2881C96.4365 19.4025 96.5128 19.4788 96.6272 19.5169C96.7416 19.555 96.9323 19.5932 97.1611 19.5932C97.3136 19.5932 97.428 19.5932 97.5805 19.5932C97.733 19.5932 97.8474 19.555 98 19.5169V21.0422C97.7712 21.0803 97.5805 21.0803 97.3517 21.1184C97.1611 21.1566 96.9323 21.1566 96.7035 21.1566C96.1696 21.1566 95.7883 21.1184 95.4451 21.004C95.14 20.9278 94.8731 20.7753 94.7206 20.5846C94.5299 20.3939 94.4155 20.1651 94.3393 19.8601C94.263 19.5932 94.2249 19.25 94.2249 18.8686V13.6826H92.7377L92.7758 12.1955Z" fill="white"/>
<path d="M23.4514 8.83949H14.4903L11.7447 0.297852L8.96109 8.83949L0 8.80135L7.24514 14.0636L4.46148 22.5671L11.7066 17.3049L18.9518 22.5671L16.1681 14.0636L23.4514 8.83949Z" fill="#00B67A"/>
<path d="M16.8544 16.0082L16.2442 14.0635L11.7446 17.3047L16.8544 16.0082Z" fill="#005128"/>
</g>
</g>
<defs>
<clipPath id="clip0_3228_31948">
<rect width="98" height="24.4047" fill="white" transform="translate(0 0.297852)"/>
</clipPath>
</defs>
</svg>
