<?xml version="1.0" encoding="UTF-8"?>
<svg width="1415px" height="300px" viewBox="0 0 1415 300" version="1.1" xmlns="http://www.w3.org/2000/svg" xmlns:xlink="http://www.w3.org/1999/xlink">
    <title>iomoney</title>
    <g id="Page-1" stroke="none" stroke-width="1" fill="none" fill-rule="evenodd">
        <g id="iomoney" transform="translate(0.280000, 0.000000)" fill="#FFFFFF" fill-rule="nonzero">
            <path d="M1252.84,150.92 C1252.84,111.67 1223.14,79.92 1181.19,79.92 C1140.07,79.92 1110.79,110.45 1110.79,152.4 C1110.79,194.56 1140.9,225.3 1184.1,225.3 C1211.51,225.3 1234.56,213.04 1248.89,188.12 L1219.82,174.62 C1212.97,187.08 1198.01,195.18 1184.1,195.18 C1166.45,195.18 1146.1,181.89 1144.85,163.41 L1251.8,163.41 C1252.48165,159.281367 1252.82944,155.104512 1252.84,150.92 Z M1145.47,138.92 C1147.97,120.23 1160.84,107.98 1181.4,107.98 C1201.75,107.98 1214.21,119.98 1215.87,138.92 L1145.47,138.92 Z" id="Shape"></path>
            <path d="M852.51,79.89 C810.35,79.89 780.45,110.22 780.45,153 C780.45,195.36 810.35,225.27 852.93,225.27 C895.71,225.27 925.61,195.36 925.61,153.62 C925.61,110.63 894.88,79.89 852.51,79.89 Z M852.93,193.49 C831.74,193.49 818.66,177.71 818.66,153.2 C818.66,128.28 831.95,111.25 852.93,111.25 C874.11,111.25 887.4,128.07 887.4,153.2 C887.4,177.92 874.32,193.49 852.93,193.49 L852.93,193.49 Z" id="Shape"></path>
            <path d="M702.39,79.93 C685.12,79.93 672.11,85.83 659.1,100.46 L654.83,100.46 C646.09,87.25 631.83,79.93 615.83,79.93 C599.624244,79.7715541 584.329403,87.4096734 574.72,100.46 L570.45,100.46 L570.24,100.26 L570.24,82.78 L534.5,82.78 L534.5,222.22 L573.12,222.22 L573.12,150.46 C573.12,127.29 582.88,113.67 599.75,113.67 C615.4,113.67 625.56,125.26 625.56,142.94 L625.56,222.22 L664.38,222.22 L664.38,150.46 C664.38,127.46 674.14,113.67 691.22,113.67 C706.66,113.67 716.62,125.26 716.62,143.15 L716.62,222.22 L755.45,222.22 L755.45,138.47 C755.45,102.09 735.93,79.93 702.39,79.93 Z" id="Path"></path>
            <path d="M1338.72,173.86 L1335.96,173.86 C1335.96,171.38 1319.12,127.22 1308.08,99.86 L1301.18,82.75 L1262.27,82.75 L1317.47,222.68 L1295.72,276 L1334.36,276 L1413.85,82.8 L1374.92,82.8 L1368.57,97.43 L1347.04,150.7 C1340.97,165.58 1338.48,172.48 1338.72,173.86 Z" id="Path"></path>
            <path d="M1032.72,79.93 C1015.44,79.93 1000.6,87.45 990.64,100.87 L986.57,100.87 L986.17,100.67 L986.17,82.78 L950.41,82.78 L950.41,222.22 L989.03,222.22 L989.03,150.87 C989.03,128.11 1000.03,113.87 1018.1,113.87 C1034.97,113.87 1047.37,126.47 1047.37,146.39 L1047.37,222.21 L1085.99,222.21 L1085.99,138.07 C1085.99,103.92 1063.63,79.93 1032.72,79.93 Z" id="Path"></path>
            <path d="M272.21,0 C188.77,0 121.72,67.5 121.72,150 C121.72,233.18 189.43,300 272.19,300 C354.95,300 422.72,232.5 422.72,150 C422.72,67.5 354.97,0 272.21,0 Z M272.21,205.91 C241.43,205.91 216.13,180.68 216.13,150 C216.13,119.32 241.43,94.09 272.21,94.09 C302.99,94.09 328.3,119.32 328.3,150 C327.61,180.68 302.99,205.91 272.21,205.91 Z" id="Shape"></path>
            <polygon id="Path" points="121.72 43.58 121.72 261.76 68.4 261.76 2.84217094e-14 43.58"></polygon>
        </g>
    </g>
</svg>